<?xml version="1.0" standalone="no"?><!DOCTYPE svg PUBLIC "-//W3C//DTD SVG 1.1//EN" "http://www.w3.org/Graphics/SVG/1.1/DTD/svg11.dtd"><svg width="396" height="107.64922601597085" viewBox="0 0 370 100.58134754017479" class="css-1j8o68f" version="1.1" xmlns="http://www.w3.org/2000/svg" xmlns:xlink="http://www.w3.org/1999/xlink" style="block-size:107.641px;height:107.641px;inline-size:396px;perspective-origin:198px 53.8125px;touch-action:none;transform-origin:198px 53.8203px;width:396px;"><defs id="SvgjsDefs1346" style="block-size:auto;height:auto;inline-size:auto;overflow-clip-margin:0px;overflow-x:visible;overflow-y:visible;perspective-origin:0px 0px;transform-origin:0px 0px;width:auto;"><linearGradient id="SvgjsLinearGradient1351" style="block-size:auto;height:auto;inline-size:auto;overflow-clip-margin:0px;overflow-x:visible;overflow-y:visible;perspective-origin:0px 0px;transform-origin:0px 0px;width:auto;"><stop id="SvgjsStop1352" stop-color="#8f5e25" offset="0" style="block-size:auto;height:auto;inline-size:auto;overflow-clip-margin:0px;overflow-x:visible;overflow-y:visible;perspective-origin:50% 50%;stop-color:rgb(143, 94, 37);transform-origin:0px 0px;width:auto;"/><stop id="SvgjsStop1353" stop-color="#fbf4a1" offset="0.5" style="block-size:auto;height:auto;inline-size:auto;overflow-clip-margin:0px;overflow-x:visible;overflow-y:visible;perspective-origin:50% 50%;stop-color:rgb(251, 244, 161);transform-origin:0px 0px;width:auto;"/><stop id="SvgjsStop1354" stop-color="#8f5e25" offset="1" style="block-size:auto;height:auto;inline-size:auto;overflow-clip-margin:0px;overflow-x:visible;overflow-y:visible;perspective-origin:50% 50%;stop-color:rgb(143, 94, 37);transform-origin:0px 0px;width:auto;"/></linearGradient><linearGradient id="SvgjsLinearGradient1355" style="block-size:auto;height:auto;inline-size:auto;overflow-clip-margin:0px;overflow-x:visible;overflow-y:visible;perspective-origin:0px 0px;transform-origin:0px 0px;width:auto;"><stop id="SvgjsStop1356" stop-color="#8f5e25" offset="0" style="block-size:auto;height:auto;inline-size:auto;overflow-clip-margin:0px;overflow-x:visible;overflow-y:visible;perspective-origin:50% 50%;stop-color:rgb(143, 94, 37);transform-origin:0px 0px;width:auto;"/><stop id="SvgjsStop1357" stop-color="#fbf4a1" offset="0.5" style="block-size:auto;height:auto;inline-size:auto;overflow-clip-margin:0px;overflow-x:visible;overflow-y:visible;perspective-origin:50% 50%;stop-color:rgb(251, 244, 161);transform-origin:0px 0px;width:auto;"/><stop id="SvgjsStop1358" stop-color="#8f5e25" offset="1" style="block-size:auto;height:auto;inline-size:auto;overflow-clip-margin:0px;overflow-x:visible;overflow-y:visible;perspective-origin:50% 50%;stop-color:rgb(143, 94, 37);transform-origin:0px 0px;width:auto;"/></linearGradient></defs><g id="SvgjsG1347" featurekey="symbolFeature-0" transform="matrix(1.1664684462952133,0,0,1.1664684462952133,632.0681284781268,-650.7563284864567)" fill="url(#SvgjsLinearGradient1351)" style="block-size:auto;fill:url(&quot;#SvgjsLinearGradient1351&quot;);height:auto;inline-size:auto;overflow-clip-margin:0px;overflow-x:visible;overflow-y:visible;perspective-origin:0px 0px;touch-action:none;transform:matrix(1.16647, 0, 0, 1.16647, 632.068, -650.756);transform-origin:0px 0px;user-select:none;width:auto;"><g xmlns="http://www.w3.org/2000/svg" style="block-size:auto;fill:url(&quot;#SvgjsLinearGradient1351&quot;);height:auto;inline-size:auto;overflow-clip-margin:0px;overflow-x:visible;overflow-y:visible;perspective-origin:0px 0px;touch-action:none;transform-origin:0px 0px;user-select:none;width:auto;"><path d="M-463.057,600.751l-0.186-1.845c-0.107-1.056,0.491-2.041,1.467-2.46c1.448-0.622,2.89-1.296,4.323-2.023   c0.994-0.504,1.506-1.643,1.253-2.728c-0.45-1.936-1.116-3.834-1.741-5.734c-0.354-1.076-1.412-1.781-2.539-1.662   c-1.579,0.167-3.141,0.383-4.68,0.644c-1.025,0.174-2.042-0.305-2.538-1.218l-1.025-1.888c-0.304-0.614-0.726-1.148-1.169-1.667   c-0.704-0.826-0.749-2.009-0.145-2.91c0.873-1.301,1.711-2.642,2.513-4.022c0.555-0.955,0.374-2.175-0.409-2.953   c-1.421-1.411-3.044-2.624-4.617-3.881c-0.871-0.696-2.115-0.721-2.987-0.026c-1.23,0.98-2.437,2.018-3.594,3.073   c-0.767,0.699-1.884,0.849-2.796,0.353l-1.888-1.025c-0.563-0.378-1.19-0.601-1.832-0.79c-1.059-0.312-1.766-1.282-1.745-2.386   c0.03-1.569,0.008-3.155-0.067-4.753c-0.05-1.081-0.832-2.011-1.887-2.251c-1.989-0.452-4.052-0.528-6.092-0.704   c-1.089-0.094-2.124,0.541-2.482,1.573c-0.507,1.46-0.962,2.967-1.363,4.504c-0.258,0.987-1.085,1.719-2.1,1.821l-2.179,0.22   c-0.726,0.042-1.446,0.118-2.153,0.26c-1.019,0.204-2.04-0.216-2.586-1.099c-0.813-1.317-1.679-2.619-2.595-3.904   c-0.629-0.882-1.785-1.224-2.808-0.866c-1.936,0.679-3.754,1.634-5.556,2.628c-0.948,0.523-1.449,1.615-1.198,2.668   c0.366,1.536,0.771,3.028,1.254,4.54c0.305,0.953,0.023,1.998-0.749,2.635l-1.715,1.414c-0.593,0.502-1.218,0.971-1.785,1.498   c-0.719,0.668-1.78,0.774-2.666,0.352c-1.391-0.664-2.818-1.288-4.277-1.871c-1.005-0.401-2.16-0.066-2.826,0.787   c-1.263,1.617-2.301,3.389-3.274,5.205c-0.509,0.951-0.343,2.136,0.435,2.884c1.146,1.102,2.311,2.151,3.521,3.161   c0.758,0.632,1.076,1.647,0.783,2.59l-0.67,2.152c-0.183,0.762-0.496,1.499-0.715,2.255c-0.268,0.925-1.065,1.577-2.02,1.699   c-1.528,0.196-3.065,0.443-4.606,0.745c-1.021,0.2-1.828,1.048-1.934,2.083c-0.217,2.116-0.217,4.229,0,6.343   c0.106,1.034,0.912,1.882,1.932,2.082c1.544,0.303,3.083,0.551,4.612,0.747c0.954,0.122,1.75,0.774,2.018,1.697   c0.22,0.756,0.533,1.493,0.716,2.258l0.668,2.151c0.293,0.943-0.027,1.957-0.785,2.589c-1.21,1.008-2.374,2.058-3.52,3.161   c-0.778,0.748-0.944,1.934-0.434,2.885c0.973,1.815,2.01,3.586,3.273,5.202c0.666,0.853,1.822,1.188,2.826,0.787   c1.46-0.583,2.888-1.208,4.279-1.872c0.886-0.423,1.947-0.318,2.666,0.35c0.567,0.527,1.193,0.996,1.786,1.498l1.718,1.418   c0.772,0.637,1.053,1.682,0.748,2.635c-0.485,1.512-0.89,3.004-1.257,4.54c-0.251,1.053,0.25,2.144,1.198,2.667   c1.803,0.995,3.622,1.949,5.56,2.628c1.022,0.358,2.179,0.016,2.807-0.867c0.916-1.285,1.781-2.588,2.595-3.904   c0.546-0.882,1.566-1.302,2.583-1.099c0.707,0.141,1.427,0.217,2.156,0.261l2.175,0.219c1.014,0.102,1.841,0.834,2.1,1.821   c0.403,1.538,0.858,3.045,1.367,4.506c0.359,1.031,1.394,1.666,2.482,1.572c2.039-0.176,4.101-0.252,6.09-0.703   c1.056-0.24,1.838-1.169,1.889-2.251c0.075-1.6,0.096-3.186,0.066-4.755c-0.021-1.103,0.683-2.072,1.741-2.385   c0.642-0.19,1.27-0.413,1.834-0.789l1.889-1.024c0.912-0.495,2.028-0.345,2.795,0.354c1.158,1.055,2.367,2.093,3.599,3.073   c0.872,0.693,2.115,0.667,2.985-0.028c1.573-1.257,3.194-2.471,4.615-3.884c0.782-0.778,0.962-1.998,0.408-2.952   c-0.801-1.379-1.64-2.72-2.513-4.02c-0.605-0.901-0.56-2.085,0.144-2.911c0.444-0.52,0.865-1.055,1.169-1.67l1.024-1.885   c0.496-0.914,1.514-1.392,2.539-1.217c1.539,0.262,3.101,0.477,4.68,0.643c1.125,0.118,2.182-0.585,2.536-1.66   c0.621-1.89,1.284-3.78,1.735-5.707c0.257-1.095-0.241-2.247-1.244-2.756c-1.433-0.727-2.875-1.402-4.324-2.024   c-0.976-0.419-1.574-1.403-1.468-2.459l0.186-1.856C-463.04,601.075-463.04,600.912-463.057,600.751z M-487.342,625.506   c-4.694,1.774-9.917,3.196-15.016,2.087c-5.007-0.798-10.017-2.703-13.757-6.29c-3.83-3.352-6.971-7.739-8.177-12.736   c-1.566-4.869-1.566-10.266,0-15.136c1.208-4.998,4.349-9.382,8.177-12.736c3.741-3.585,8.752-5.493,13.754-6.29   c5.101-1.112,10.321,0.312,15.018,2.087c4.739,2.07,8.533,5.79,11.492,9.938c2.798,4.29,3.953,9.305,4.325,14.362   c0.01,0.137,0.01,0.275,0,0.412c-0.369,5.058-1.527,10.074-4.325,14.362C-478.809,619.713-482.601,623.436-487.342,625.506z" style="block-size:auto;d:path(&quot;M -463.057 600.751 L -463.243 598.906 C -463.35 597.85 -462.752 596.865 -461.776 596.446 C -460.328 595.824 -458.886 595.15 -457.453 594.423 C -456.459 593.919 -455.947 592.78 -456.2 591.695 C -456.65 589.759 -457.316 587.861 -457.941 585.961 C -458.295 584.885 -459.353 584.18 -460.48 584.299 C -462.059 584.466 -463.621 584.682 -465.16 584.943 C -466.185 585.117 -467.202 584.638 -467.698 583.725 L -468.723 581.837 C -469.027 581.223 -469.449 580.689 -469.892 580.17 C -470.596 579.344 -470.641 578.161 -470.037 577.26 C -469.164 575.959 -468.326 574.618 -467.524 573.238 C -466.969 572.283 -467.15 571.063 -467.933 570.285 C -469.354 568.874 -470.977 567.661 -472.55 566.404 C -473.421 565.708 -474.665 565.683 -475.537 566.378 C -476.767 567.358 -477.974 568.396 -479.131 569.451 C -479.898 570.15 -481.015 570.3 -481.927 569.804 L -483.815 568.779 C -484.378 568.401 -485.005 568.178 -485.647 567.989 C -486.706 567.677 -487.413 566.707 -487.392 565.603 C -487.362 564.034 -487.384 562.448 -487.459 560.85 C -487.509 559.769 -488.291 558.839 -489.346 558.599 C -491.335 558.147 -493.398 558.071 -495.438 557.895 C -496.527 557.801 -497.562 558.436 -497.92 559.468 C -498.427 560.928 -498.882 562.435 -499.283 563.972 C -499.541 564.959 -500.368 565.691 -501.383 565.793 L -503.562 566.013 C -504.288 566.055 -505.008 566.131 -505.715 566.273 C -506.734 566.477 -507.755 566.057 -508.301 565.174 C -509.114 563.857 -509.98 562.555 -510.896 561.27 C -511.525 560.388 -512.681 560.046 -513.704 560.404 C -515.64 561.083 -517.458 562.038 -519.26 563.032 C -520.208 563.555 -520.709 564.647 -520.458 565.7 C -520.092 567.236 -519.687 568.728 -519.204 570.24 C -518.899 571.193 -519.181 572.238 -519.953 572.875 L -521.668 574.289 C -522.261 574.791 -522.886 575.26 -523.453 575.787 C -524.172 576.455 -525.233 576.561 -526.119 576.139 C -527.51 575.475 -528.937 574.851 -530.396 574.268 C -531.401 573.867 -532.556 574.202 -533.222 575.055 C -534.485 576.672 -535.523 578.444 -536.496 580.26 C -537.005 581.211 -536.839 582.396 -536.061 583.144 C -534.915 584.246 -533.75 585.295 -532.54 586.305 C -531.782 586.937 -531.464 587.952 -531.757 588.895 L -532.427 591.047 C -532.61 591.809 -532.923 592.546 -533.142 593.302 C -533.41 594.227 -534.207 594.879 -535.162 595.001 C -536.69 595.197 -538.227 595.444 -539.768 595.746 C -540.789 595.946 -541.596 596.794 -541.702 597.829 C -541.919 599.945 -541.919 602.058 -541.702 604.172 C -541.596 605.206 -540.79 606.054 -539.77 606.254 C -538.226 606.557 -536.687 606.805 -535.158 607.001 C -534.204 607.123 -533.408 607.775 -533.14 608.698 C -532.92 609.454 -532.607 610.191 -532.424 610.956 L -531.756 613.107 C -531.463 614.05 -531.783 615.064 -532.541 615.696 C -533.751 616.704 -534.915 617.754 -536.061 618.857 C -536.839 619.605 -537.005 620.791 -536.495 621.742 C -535.522 623.557 -534.485 625.328 -533.222 626.944 C -532.556 627.797 -531.4 628.132 -530.396 627.731 C -528.936 627.148 -527.508 626.523 -526.117 625.859 C -525.231 625.436 -524.17 625.541 -523.451 626.209 C -522.884 626.736 -522.258 627.205 -521.665 627.707 L -519.947 629.125 C -519.175 629.762 -518.894 630.807 -519.199 631.76 C -519.684 633.272 -520.089 634.764 -520.456 636.3 C -520.707 637.353 -520.206 638.444 -519.258 638.967 C -517.455 639.962 -515.636 640.916 -513.698 641.595 C -512.676 641.953 -511.519 641.611 -510.891 640.728 C -509.975 639.443 -509.11 638.14 -508.296 636.824 C -507.75 635.942 -506.73 635.522 -505.713 635.725 C -505.006 635.866 -504.286 635.942 -503.557 635.986 L -501.382 636.205 C -500.368 636.307 -499.541 637.039 -499.282 638.026 C -498.879 639.564 -498.424 641.071 -497.915 642.532 C -497.556 643.563 -496.521 644.198 -495.433 644.104 C -493.394 643.928 -491.332 643.852 -489.343 643.401 C -488.287 643.161 -487.505 642.232 -487.454 641.15 C -487.379 639.55 -487.358 637.964 -487.388 636.395 C -487.409 635.292 -486.705 634.323 -485.647 634.01 C -485.005 633.82 -484.377 633.597 -483.813 633.221 L -481.924 632.197 C -481.012 631.702 -479.896 631.852 -479.129 632.551 C -477.971 633.606 -476.762 634.644 -475.53 635.624 C -474.658 636.317 -473.415 636.291 -472.545 635.596 C -470.972 634.339 -469.351 633.125 -467.93 631.712 C -467.148 630.934 -466.968 629.714 -467.522 628.76 C -468.323 627.381 -469.162 626.04 -470.035 624.74 C -470.64 623.839 -470.595 622.655 -469.891 621.829 C -469.447 621.309 -469.026 620.774 -468.722 620.159 L -467.698 618.274 C -467.202 617.36 -466.184 616.882 -465.159 617.057 C -463.62 617.319 -462.058 617.534 -460.479 617.7 C -459.354 617.818 -458.297 617.115 -457.943 616.04 C -457.322 614.15 -456.659 612.26 -456.208 610.333 C -455.951 609.238 -456.449 608.086 -457.452 607.577 C -458.885 606.85 -460.327 606.175 -461.776 605.553 C -462.752 605.134 -463.35 604.15 -463.244 603.094 L -463.058 601.238 C -463.04 601.075 -463.04 600.912 -463.057 600.751 Z M -487.342 625.506 C -492.036 627.28 -497.259 628.702 -502.358 627.593 C -507.365 626.795 -512.375 624.89 -516.115 621.303 C -519.945 617.951 -523.086 613.564 -524.292 608.567 C -525.858 603.698 -525.858 598.301 -524.292 593.431 C -523.084 588.433 -519.943 584.049 -516.115 580.695 C -512.374 577.11 -507.363 575.202 -502.361 574.405 C -497.26 573.293 -492.04 574.717 -487.343 576.492 C -482.604 578.562 -478.81 582.282 -475.851 586.43 C -473.053 590.72 -471.898 595.735 -471.526 600.792 C -471.516 600.929 -471.516 601.067 -471.526 601.204 C -471.895 606.262 -473.053 611.278 -475.851 615.566 C -478.809 619.713 -482.601 623.436 -487.342 625.506 Z&quot;);fill:url(&quot;#SvgjsLinearGradient1351&quot;);height:auto;inline-size:auto;overflow-clip-margin:0px;overflow-x:visible;overflow-y:visible;perspective-origin:0px 0px;transform-origin:0px 0px;user-select:none;width:auto;"/><g style="block-size:auto;fill:url(&quot;#SvgjsLinearGradient1351&quot;);height:auto;inline-size:auto;overflow-clip-margin:0px;overflow-x:visible;overflow-y:visible;perspective-origin:0px 0px;touch-action:none;transform-origin:0px 0px;user-select:none;width:auto;"><path d="M-499,609.867c-0.706,0-1.28,0.573-1.28,1.28v4.49c0,0.706,0.573,1.28,1.28,1.28s1.28-0.573,1.28-1.28v-4.49    C-497.72,610.44-498.294,609.867-499,609.867z" style="block-size:auto;d:path(&quot;M -499 609.867 C -499.706 609.867 -500.28 610.44 -500.28 611.147 V 615.637 C -500.28 616.343 -499.707 616.917 -499 616.917 S -497.72 616.344 -497.72 615.637 V 611.147 C -497.72 610.44 -498.294 609.867 -499 609.867 Z&quot;);fill:url(&quot;#SvgjsLinearGradient1351&quot;);height:auto;inline-size:auto;overflow-clip-margin:0px;overflow-x:visible;overflow-y:visible;perspective-origin:0px 0px;transform-origin:0px 0px;user-select:none;width:auto;"/><path d="M-485.251,594.416c0-6.023-3.857-11.292-9.598-13.108c-0.388-0.123-0.813-0.053-1.142,0.187    c-0.329,0.241-0.523,0.624-0.523,1.032v12.057l-2.486,1.905l-2.486-1.905v-12.057c0-0.408-0.194-0.792-0.523-1.032    c-0.33-0.241-0.752-0.311-1.143-0.187c-5.74,1.817-9.597,7.085-9.597,13.108c0,5.511,3.267,10.262,7.959,12.453v12.601    c0,0.706,0.573,1.28,1.28,1.28c0.706,0,1.28-0.573,1.28-1.28v-11.704c1.038,0.251,2.116,0.399,3.231,0.399    s2.193-0.148,3.232-0.399v11.705c0,0.706,0.573,1.28,1.28,1.28c0.706,0,1.28-0.573,1.28-1.28v-12.602    C-488.517,604.677-485.251,599.927-485.251,594.416z M-501.196,605.395c-4.517-0.864-8.115-4.581-8.845-9.122    c-0.808-5.024,1.727-9.706,5.996-11.85v10.791c0,0.398,0.185,0.774,0.502,1.016l3.766,2.886c0.459,0.352,1.097,0.352,1.556,0    l3.766-2.886c0.316-0.242,0.502-0.618,0.502-1.016v-10.791c3.736,1.876,6.145,5.698,6.145,9.992    C-487.81,601.304-494.067,606.759-501.196,605.395z" style="block-size:auto;d:path(&quot;M -485.251 594.416 C -485.251 588.393 -489.108 583.124 -494.849 581.308 C -495.237 581.185 -495.662 581.255 -495.991 581.495 C -496.32 581.736 -496.514 582.119 -496.514 582.527 V 594.584 L -499 596.489 L -501.486 594.584 V 582.527 C -501.486 582.119 -501.68 581.735 -502.009 581.495 C -502.339 581.254 -502.761 581.184 -503.152 581.308 C -508.892 583.125 -512.749 588.393 -512.749 594.416 C -512.749 599.927 -509.482 604.678 -504.79 606.869 V 619.47 C -504.79 620.176 -504.217 620.75 -503.51 620.75 C -502.804 620.75 -502.23 620.177 -502.23 619.47 V 607.766 C -501.192 608.017 -500.114 608.165 -498.999 608.165 S -496.806 608.017 -495.767 607.766 V 619.471 C -495.767 620.177 -495.194 620.751 -494.487 620.751 C -493.781 620.751 -493.207 620.178 -493.207 619.471 V 606.869 C -488.517 604.677 -485.251 599.927 -485.251 594.416 Z M -501.196 605.395 C -505.713 604.531 -509.311 600.814 -510.041 596.273 C -510.849 591.249 -508.314 586.567 -504.045 584.423 V 595.214 C -504.045 595.612 -503.86 595.988 -503.543 596.23 L -499.777 599.116 C -499.318 599.468 -498.68 599.468 -498.221 599.116 L -494.455 596.23 C -494.139 595.988 -493.953 595.612 -493.953 595.214 V 584.423 C -490.217 586.299 -487.808 590.121 -487.808 594.415 C -487.81 601.304 -494.067 606.759 -501.196 605.395 Z&quot;);fill:url(&quot;#SvgjsLinearGradient1351&quot;);height:auto;inline-size:auto;overflow-clip-margin:0px;overflow-x:visible;overflow-y:visible;perspective-origin:0px 0px;transform-origin:0px 0px;user-select:none;width:auto;"/></g></g></g><g id="SvgjsG1348" featurekey="nameFeature-0" transform="matrix(1.8899304680000304,0,0,1.8899304680000304,120.07559894900302,1.7744172637488873)" fill="url(#SvgjsLinearGradient1355)" style="block-size:auto;fill:url(&quot;#SvgjsLinearGradient1355&quot;);height:auto;inline-size:auto;overflow-clip-margin:0px;overflow-x:visible;overflow-y:visible;perspective-origin:0px 0px;touch-action:none;transform:matrix(1.88993, 0, 0, 1.88993, 120.076, 1.77442);transform-origin:0px 0px;user-select:none;width:auto;"><path d="M31.48 40 l-9.6 0 l-1.24 -3.96 l-9.84 0 l-1.24 3.96 l-9.6 0 l10.8 -28.24 l10.16 0 z M18.8 29.759999999999998 l-3 -9.96 l-3.08 9.96 l6.08 0 z M54.96 40 l-7.96 0 l-0.04 -1.48 c-0.08 0.08 -0.44 0.52 -0.84 0.84 c-1.16 0.84 -2.92 1.16 -4.36 1.16 c-2.2 0 -3.76 -0.72 -4.48 -1.16 c-4.76 -2.72 -4.88 -9 -4.84 -10.2 c0 -0.72 0 -2.64 0.72 -4.64 c0.64 -1.72 2.84 -5.84 8.36 -5.84 c0.64 0 2.48 0.04 4.12 1.12 c0.36 0.24 0.56 0.4 1.12 0.92 l0 -8.96 l8.2 0 l0 28.24 z M46.96 29.560000000000002 c0 -1.16 -0.08 -2.36 -0.64 -3.4 c-0.76 -1.36 -2.04 -1.6 -2.6 -1.6 c-0.6 0 -1.24 0.24 -1.72 0.6 c-0.92 0.72 -1.44 2.04 -1.44 4.44 c0 1.28 0.2 3.08 1.16 4.08 c0.48 0.52 1.32 0.88 2.08 0.88 c0.8 0 1.4 -0.36 1.6 -0.52 c1.44 -1 1.56 -2.96 1.56 -4.48 z M94.88 40 l-8.24 0 l0 -10.84 c0 -0.8 0.24 -3.6 -2.88 -3.6 c-0.64 0 -2.36 0.16 -2.88 2 c-0.12 0.48 -0.12 0.88 -0.12 1.4 l0 11.04 l-8.24 0 l0 -11.2 c0 -0.48 0 -0.8 -0.12 -1.28 c-0.48 -1.76 -2.12 -1.96 -2.76 -1.96 c-0.56 0 -2.28 0.2 -2.84 1.92 c-0.08 0.24 -0.2 0.64 -0.2 1.28 l0 11.24 l-8.28 0 l0 -20.72 l7.96 0 l0 2.96 c0.48 -0.84 0.8 -1.24 1.12 -1.56 c0.84 -0.8 2.56 -1.88 5.4 -1.88 c0.72 0 4.16 0 6.16 2.24 c0.32 0.32 0.6 0.8 1.04 1.6 c0.36 -0.84 0.8 -1.28 1.08 -1.56 c0.96 -1 2.68 -2.32 6.04 -2.28 c0.52 0 1.48 -0.04 2.72 0.32 c1.04 0.28 3.64 1.16 4.64 4.2 c0.4 1.2 0.4 2.32 0.4 3.6 l0 13.08 z M106.60000000000001 17.24 l-8.24 0 l0 -5.48 l8.24 0 l0 5.48 z M106.60000000000001 40 l-8.24 0 l0 -20.72 l8.24 0 l0 20.72 z M132.24 40 l-8.24 0 l0 -11.32 c0 -0.48 0 -0.92 -0.12 -1.4 c-0.2 -0.72 -0.8 -1.72 -2.68 -1.72 c-3.04 0 -3 2.52 -3 3.4 l0 11.04 l-8.2 0 l0 -20.72 l7.76 0 l0 2.76 c0.52 -0.76 0.6 -0.84 1 -1.24 c1.52 -1.52 3.72 -2.08 5.84 -2.08 c0.76 0 3.32 0.04 5.28 1.72 c1.08 0.88 1.76 2.24 2.08 3.6 c0.16 0.68 0.28 1.4 0.28 2.88 l0 13.08 z" style="block-size:auto;d:path(&quot;M 31.48 40 L 21.88 40 L 20.64 36.04 L 10.8 36.04 L 9.56 40 L -0.0400009 40 L 10.76 11.76 L 20.92 11.76 Z M 18.8 29.76 L 15.8 19.8 L 12.72 29.76 L 18.8 29.76 Z M 54.96 40 L 47 40 L 46.96 38.52 C 46.88 38.6 46.52 39.04 46.12 39.36 C 44.96 40.2 43.2 40.52 41.76 40.52 C 39.56 40.52 38 39.8 37.28 39.36 C 32.52 36.64 32.4 30.36 32.44 29.16 C 32.44 28.44 32.44 26.52 33.16 24.52 C 33.8 22.8 36 18.68 41.52 18.68 C 42.16 18.68 44 18.72 45.64 19.8 C 46 20.04 46.2 20.2 46.76 20.72 L 46.76 11.76 L 54.96 11.76 L 54.96 40 Z M 46.96 29.56 C 46.96 28.4 46.88 27.2 46.32 26.16 C 45.56 24.8 44.28 24.56 43.72 24.56 C 43.12 24.56 42.48 24.8 42 25.16 C 41.08 25.88 40.56 27.2 40.56 29.6 C 40.56 30.88 40.76 32.68 41.72 33.68 C 42.2 34.2 43.04 34.56 43.8 34.56 C 44.6 34.56 45.2 34.2 45.4 34.04 C 46.84 33.04 46.96 31.08 46.96 29.56 Z M 94.88 40 L 86.64 40 L 86.64 29.16 C 86.64 28.36 86.88 25.56 83.76 25.56 C 83.12 25.56 81.4 25.72 80.88 27.56 C 80.76 28.04 80.76 28.44 80.76 28.96 L 80.76 40 L 72.52 40 L 72.52 28.8 C 72.52 28.32 72.52 28 72.4 27.52 C 71.92 25.76 70.28 25.56 69.64 25.56 C 69.08 25.56 67.36 25.76 66.8 27.48 C 66.72 27.72 66.6 28.12 66.6 28.76 L 66.6 40 L 58.32 40 L 58.32 19.28 L 66.28 19.28 L 66.28 22.24 C 66.76 21.4 67.08 21 67.4 20.68 C 68.24 19.88 69.96 18.8 72.8 18.8 C 73.52 18.8 76.96 18.8 78.96 21.04 C 79.28 21.36 79.56 21.84 80 22.64 C 80.36 21.8 80.8 21.36 81.08 21.08 C 82.04 20.08 83.76 18.76 87.12 18.8 C 87.64 18.8 88.6 18.76 89.84 19.12 C 90.88 19.4 93.48 20.28 94.48 23.32 C 94.88 24.52 94.88 25.64 94.88 26.92 L 94.88 40 Z M 106.6 17.24 L 98.36 17.24 L 98.36 11.76 L 106.6 11.76 L 106.6 17.24 Z M 106.6 40 L 98.36 40 L 98.36 19.28 L 106.6 19.28 L 106.6 40 Z M 132.24 40 L 124 40 L 124 28.68 C 124 28.2 124 27.76 123.88 27.28 C 123.68 26.56 123.08 25.56 121.2 25.56 C 118.16 25.56 118.2 28.08 118.2 28.96 L 118.2 40 L 110 40 L 110 19.28 L 117.76 19.28 L 117.76 22.04 C 118.28 21.28 118.36 21.2 118.76 20.8 C 120.28 19.28 122.48 18.72 124.6 18.72 C 125.36 18.72 127.92 18.76 129.88 20.44 C 130.96 21.32 131.64 22.68 131.96 24.04 C 132.12 24.72 132.24 25.44 132.24 26.92 L 132.24 40 Z&quot;);fill:url(&quot;#SvgjsLinearGradient1355&quot;);height:auto;inline-size:auto;overflow-clip-margin:0px;overflow-x:visible;overflow-y:visible;perspective-origin:0px 0px;transform-origin:0px 0px;user-select:none;width:auto;"/></g></svg>