<?xml version="1.0" standalone="no"?><!DOCTYPE svg PUBLIC "-//W3C//DTD SVG 1.1//EN" "http://www.w3.org/Graphics/SVG/1.1/DTD/svg11.dtd"><svg width="435.59999999999997" height="117.67226976452213" viewBox="0 0 370 99.95119332615516" class="css-1j8o68f" version="1.1" xmlns="http://www.w3.org/2000/svg" xmlns:xlink="http://www.w3.org/1999/xlink" style="block-size:117.672px;height:117.672px;inline-size:435.594px;perspective-origin:217.797px 58.8281px;transform-origin:217.797px 58.8359px;width:435.594px;"><defs id="SvgjsDefs3055" style="block-size:auto;height:auto;inline-size:auto;overflow-clip-margin:0px;overflow-x:visible;overflow-y:visible;perspective-origin:0px 0px;transform-origin:0px 0px;width:auto;"><linearGradient id="SvgjsLinearGradient3060" style="block-size:auto;height:auto;inline-size:auto;overflow-clip-margin:0px;overflow-x:visible;overflow-y:visible;perspective-origin:0px 0px;transform-origin:0px 0px;width:auto;"><stop id="SvgjsStop3061" stop-color="#8f5e25" offset="0" style="block-size:auto;height:auto;inline-size:auto;overflow-clip-margin:0px;overflow-x:visible;overflow-y:visible;perspective-origin:50% 50%;stop-color:rgb(143, 94, 37);transform-origin:0px 0px;width:auto;"/><stop id="SvgjsStop3062" stop-color="#fbf4a1" offset="0.5" style="block-size:auto;height:auto;inline-size:auto;overflow-clip-margin:0px;overflow-x:visible;overflow-y:visible;perspective-origin:50% 50%;stop-color:rgb(251, 244, 161);transform-origin:0px 0px;width:auto;"/><stop id="SvgjsStop3063" stop-color="#8f5e25" offset="1" style="block-size:auto;height:auto;inline-size:auto;overflow-clip-margin:0px;overflow-x:visible;overflow-y:visible;perspective-origin:50% 50%;stop-color:rgb(143, 94, 37);transform-origin:0px 0px;width:auto;"/></linearGradient><linearGradient id="SvgjsLinearGradient3064" style="block-size:auto;height:auto;inline-size:auto;overflow-clip-margin:0px;overflow-x:visible;overflow-y:visible;perspective-origin:0px 0px;transform-origin:0px 0px;width:auto;"><stop id="SvgjsStop3065" stop-color="#8f5e25" offset="0" style="block-size:auto;height:auto;inline-size:auto;overflow-clip-margin:0px;overflow-x:visible;overflow-y:visible;perspective-origin:50% 50%;stop-color:rgb(143, 94, 37);transform-origin:0px 0px;width:auto;"/><stop id="SvgjsStop3066" stop-color="#fbf4a1" offset="0.5" style="block-size:auto;height:auto;inline-size:auto;overflow-clip-margin:0px;overflow-x:visible;overflow-y:visible;perspective-origin:50% 50%;stop-color:rgb(251, 244, 161);transform-origin:0px 0px;width:auto;"/><stop id="SvgjsStop3067" stop-color="#8f5e25" offset="1" style="block-size:auto;height:auto;inline-size:auto;overflow-clip-margin:0px;overflow-x:visible;overflow-y:visible;perspective-origin:50% 50%;stop-color:rgb(143, 94, 37);transform-origin:0px 0px;width:auto;"/></linearGradient></defs><g id="SvgjsG3056" featurekey="symbolFeature-0" transform="matrix(0.19527436978605872,0,0,0.19527436978605872,0,-0.009764314419386511)" fill="url(#SvgjsLinearGradient3060)" style="block-size:auto;fill:url(&quot;#SvgjsLinearGradient3060&quot;);height:auto;inline-size:auto;overflow-clip-margin:0px;overflow-x:visible;overflow-y:visible;perspective-origin:0px 0px;transform:matrix(0.195274, 0, 0, 0.195274, 0, -0.00976431);transform-origin:0px 0px;width:auto;"><g xmlns="http://www.w3.org/2000/svg" style="block-size:auto;fill:url(&quot;#SvgjsLinearGradient3060&quot;);height:auto;inline-size:auto;overflow-clip-margin:0px;overflow-x:visible;overflow-y:visible;perspective-origin:0px 0px;transform-origin:0px 0px;width:auto;"><path d="M289.9,186.3c-12.1-14.4-47.9-50.5-103.7-50.5c-56.1,0-91.6,35.9-103.7,50.4c12.1,14.5,47.9,50.5,103.7,50.5   C242.3,236.7,277.9,200.8,289.9,186.3z M148.5,186.3c0-20.9,17-37.8,37.8-37.8s37.8,16.9,37.8,37.8c0,20.8-17,37.8-37.8,37.8   S148.5,207.1,148.5,186.3z" style="block-size:auto;d:path(&quot;M 289.9 186.3 C 277.8 171.9 242 135.8 186.2 135.8 C 130.1 135.8 94.6 171.7 82.5 186.2 C 94.6 200.7 130.4 236.7 186.2 236.7 C 242.3 236.7 277.9 200.8 289.9 186.3 Z M 148.5 186.3 C 148.5 165.4 165.5 148.5 186.3 148.5 S 224.1 165.4 224.1 186.3 C 224.1 207.1 207.1 224.1 186.3 224.1 S 148.5 207.1 148.5 186.3 Z&quot;);fill:url(&quot;#SvgjsLinearGradient3060&quot;);height:auto;inline-size:auto;overflow-clip-margin:0px;overflow-x:visible;overflow-y:visible;perspective-origin:0px 0px;transform-origin:0px 0px;width:auto;"/><path d="M491.7,393.8l-83.5-83.4c-8.3-8.3-21.9-8.3-30.2,0l-9.7,9.7l-28.6-28.6c49.7-72.4,42.6-172.6-21.7-237   c-72.6-72.6-190.8-72.6-263.5,0C19.4,89.8,0,136.5,0,186.3c0,49.7,19.4,96.4,54.5,131.6c35.2,35.2,82,54.6,131.7,54.6   c38.1,0,74.5-11.5,105.3-32.7l28.6,28.5l-9.7,9.7c-8.3,8.3-8.3,21.9,0,30.2l83.5,83.5c13.4,13.4,31.1,20.2,48.9,20.2   s35.4-6.7,49-20.2c13.1-13.1,20.3-30.5,20.3-49C512,424.3,504.8,407,491.7,393.8z M266.1,82.6l18.5,10.7l-17.8,30.9l-18.5-10.7   L266.1,82.6z M175.6,64h21.3v35.7h-21.3V64z M106.4,82.6l17.8,30.9l-18.5,10.7L87.9,93.2L106.4,82.6z M60.2,192.2l-3.9-5.9l3.9-5.9   c1.8-2.7,44.9-65.9,126-65.9c81.2,0,124.2,63.2,126,65.9l3.9,5.9l-3.9,5.9c-1.8,2.7-44.9,65.9-126,65.9   C105.1,258,62,194.9,60.2,192.2z M106.4,289.9l-18.5-10.7l17.8-30.9l18.5,10.7L106.4,289.9z M196.9,308.5h-21.3v-35.7h21.3V308.5z    M248.3,259.1l18.5-10.7l17.8,30.9l-18.5,10.7L248.3,259.1z M400.7,415.8l-15.1-15.1l15.1-15.1l15.1,15.1L400.7,415.8z    M430.9,445.9l-15.1-15.1l15.1-15.1l15.1,15.1L430.9,445.9z" style="block-size:auto;d:path(&quot;M 491.7 393.8 L 408.2 310.4 C 399.9 302.1 386.3 302.1 378 310.4 L 368.3 320.1 L 339.7 291.5 C 389.4 219.1 382.3 118.9 318 54.5 C 245.4 -18.1 127.2 -18.1 54.5 54.5 C 19.4 89.8 0 136.5 0 186.3 C 0 236 19.4 282.7 54.5 317.9 C 89.7 353.1 136.5 372.5 186.2 372.5 C 224.3 372.5 260.7 361 291.5 339.8 L 320.1 368.3 L 310.4 378 C 302.1 386.3 302.1 399.9 310.4 408.2 L 393.9 491.7 C 407.3 505.1 425 511.9 442.8 511.9 S 478.2 505.2 491.8 491.7 C 504.9 478.6 512.1 461.2 512.1 442.7 C 512 424.3 504.8 407 491.7 393.8 Z M 266.1 82.6 L 284.6 93.3 L 266.8 124.2 L 248.3 113.5 L 266.1 82.6 Z M 175.6 64 H 196.9 V 99.7 H 175.6 V 64 Z M 106.4 82.6 L 124.2 113.5 L 105.7 124.2 L 87.9 93.2 L 106.4 82.6 Z M 60.2 192.2 L 56.3 186.3 L 60.2 180.4 C 62 177.7 105.1 114.5 186.2 114.5 C 267.4 114.5 310.4 177.7 312.2 180.4 L 316.1 186.3 L 312.2 192.2 C 310.4 194.9 267.3 258.1 186.2 258.1 C 105.1 258 62 194.9 60.2 192.2 Z M 106.4 289.9 L 87.9 279.2 L 105.7 248.3 L 124.2 259 L 106.4 289.9 Z M 196.9 308.5 H 175.6 V 272.8 H 196.9 V 308.5 Z M 248.3 259.1 L 266.8 248.4 L 284.6 279.3 L 266.1 290 L 248.3 259.1 Z M 400.7 415.8 L 385.6 400.7 L 400.7 385.6 L 415.8 400.7 L 400.7 415.8 Z M 430.9 445.9 L 415.8 430.8 L 430.9 415.7 L 446 430.8 L 430.9 445.9 Z&quot;);fill:url(&quot;#SvgjsLinearGradient3060&quot;);height:auto;inline-size:auto;overflow-clip-margin:0px;overflow-x:visible;overflow-y:visible;perspective-origin:0px 0px;transform-origin:0px 0px;width:auto;"/></g></g><g id="SvgjsG3057" featurekey="nameFeature-0" transform="matrix(1.67470526557019,0,0,1.67470526557019,117.05251834928686,6.305472082078548)" fill="url(#SvgjsLinearGradient3064)" style="block-size:auto;fill:url(&quot;#SvgjsLinearGradient3064&quot;);height:auto;inline-size:auto;overflow-clip-margin:0px;overflow-x:visible;overflow-y:visible;perspective-origin:0px 0px;transform:matrix(1.67471, 0, 0, 1.67471, 117.053, 6.30547);transform-origin:0px 0px;width:auto;"><path d="M28.36 31.92 c0 0.92 -0.12 3.88 -2.2 5.88 c-0.76 0.76 -1.6 1.12 -1.96 1.28 c-1.76 0.8 -3.32 0.92 -5.16 0.92 l-17.28 0 l0 -28.24 l16.72 0 c0.8 0 1.6 0.04 2.4 0.16 c1.68 0.24 3.68 0.96 4.88 2.2 c0.24 0.28 0.72 0.84 1.12 1.68 c0.48 0.96 0.72 2.04 0.72 3.12 c0 0.92 -0.28 3.6 -2.56 5.4 c-0.44 0.32 -0.88 0.6 -1.88 1.04 l1.2 0.36 c0.88 0.28 1.56 0.76 2.24 1.44 c1.72 1.8 1.76 3.84 1.76 4.76 z M18.52 20.12 c0 -0.72 -0.2 -1.16 -0.36 -1.4 c-0.68 -1.08 -2.04 -1 -2.36 -1 l-5.12 0 l0 4.76 l4.92 0 c0.96 0 2.04 -0.08 2.6 -1.04 c0.32 -0.48 0.32 -1.08 0.32 -1.32 z M19.28 31.2 c0 -0.32 -0.04 -0.92 -0.4 -1.52 c-0.8 -1.32 -2.48 -1.28 -2.84 -1.28 l-5.4 0 l0 5.52 l5.6 0 c1 0 1.92 -0.2 2.56 -1.12 c0.44 -0.64 0.48 -1.28 0.48 -1.6 z M45.6 25.8 c-0.4 -0.04 -0.8 -0.08 -1.2 -0.08 c-0.64 -0.04 -4.16 -0.24 -5.16 2.56 c-0.24 0.68 -0.24 1.24 -0.24 1.96 l0 9.76 l-8.2 0 l0 -20.72 l7.92 0 l0 1.8 c0.4 -0.36 0.68 -0.6 1.12 -0.88 c1.84 -1.28 3.6 -1.36 5.76 -1.36 l0 6.96 z M70.80000000000001 29.68 c0 1.12 -0.2 4.68 -2.68 7.44 c-1.44 1.6 -4.52 3.68 -9.68 3.68 c-1.2 0 -4.92 -0.04 -7.96 -2.44 c-1.52 -1.2 -3.84 -3.84 -3.84 -8.56 c0 -2.88 0.88 -5.72 2.84 -7.84 c1.4 -1.52 4.36 -3.6 9.4 -3.56 c1.08 0 5.36 0.12 8.44 2.8 c2.32 2.04 3.48 5.4 3.48 8.48 z M62.480000000000004 29.48 c0 -3.12 -1 -4.56 -2.48 -5.08 c-0.6 -0.2 -1.12 -0.2 -1.36 -0.2 c-1.44 0.04 -2.24 0.76 -2.6 1.16 c-0.64 0.68 -1.2 2.08 -1.2 4.2 c0 2.04 0.52 3.44 1.04 4.16 c0.32 0.44 0.76 0.8 1.24 1 c0.24 0.12 0.84 0.28 1.56 0.28 c0.96 0 1.84 -0.28 2.48 -0.92 c0.72 -0.72 1.32 -2.28 1.32 -4.6 z M105.72 19.28 l-6.2 20.72 l-8.2 0 l-2.72 -12.68 l-2.52 12.68 l-8.2 0 l-6.24 -20.72 l8.4 0 l2.56 13.24 l2.52 -13.24 l7.08 0 l2.64 13.2 l2.44 -13.2 l8.44 0 z M126.76 33.08 c0 1.2 -0.24 2.28 -0.84 3.36 c-2.36 4.28 -7.88 4.36 -9 4.36 c-3.08 0 -6.24 -0.88 -8.84 -2.52 c-0.8 -0.48 -1.52 -1.08 -2.28 -1.64 l4.64 -4.2 c0.4 0.36 0.76 0.68 1.16 1 c0.68 0.48 2.72 1.76 5.24 1.76 c0.2 0 0.84 0 1.36 -0.24 c0.6 -0.28 0.8 -0.8 0.8 -1.08 c0 -0.24 -0.12 -0.44 -0.16 -0.48 c-0.52 -0.8 -1.44 -0.72 -3 -1 c-0.48 -0.08 -2.44 -0.48 -4.08 -1.04 c-1.92 -0.64 -3.4 -1.4 -4.32 -3.36 c-0.36 -0.8 -0.56 -1.6 -0.56 -2.48 c0 -1.8 0.84 -3.16 1.2 -3.68 c1.2 -1.68 3.56 -3.4 8.2 -3.4 c2.48 0 5.64 0.52 7.88 1.68 c0.76 0.4 1.32 0.8 2 1.32 l-4.44 4.04 c-0.6 -0.4 -2.8 -2 -5.32 -2 c-0.16 0 -0.72 0 -1.16 0.2 c-0.48 0.24 -0.6 0.68 -0.6 0.88 c0 0.52 0.44 0.76 0.56 0.8 c0.36 0.2 1.16 0.36 2.16 0.6 c3.04 0.76 4.8 1.04 6.12 1.72 c1.04 0.52 3.28 2.12 3.28 5.4 z M151.04000000000002 31.119999999999997 l-14.44 0 s0 0.96 0.2 1.6 c0.28 0.8 1.08 2.32 3.28 2.28 c1.28 0 1.96 -0.44 2.36 -0.8 c0.84 -0.68 1.24 -1.6 1.4 -1.88 l6.76 2.84 c-0.2 0.32 -0.44 0.76 -1 1.4 c-1.44 1.68 -3.08 2.6 -3.8 2.96 c-1 0.48 -3.16 1.32 -6.12 1.32 c-1.72 0 -3.36 -0.24 -4.92 -0.88 c-4.28 -1.76 -6.56 -5.92 -6.56 -10.44 c0 -4.28 1.96 -6.92 3.16 -8.08 c2.96 -2.84 7.08 -3.04 8.24 -3.04 c1.4 0 5.64 0.2 8.64 3.44 c1 1.08 1.76 2.44 2.2 3.84 c0.56 1.8 0.6 3.56 0.6 5.44 z M142.68 26.759999999999998 c-0.04 -0.24 -0.04 -0.64 -0.2 -1.16 c-0.56 -1.72 -2.08 -1.96 -2.72 -1.96 c-0.64 0.04 -1.04 0.2 -1.28 0.32 c-1.52 0.68 -1.72 2.36 -1.8 2.8 l6 0 z" style="block-size:auto;d:path(&quot;M 28.36 31.92 C 28.36 32.84 28.24 35.8 26.16 37.8 C 25.4 38.56 24.56 38.92 24.2 39.08 C 22.44 39.88 20.88 40 19.04 40 L 1.76 40 L 1.76 11.76 L 18.48 11.76 C 19.28 11.76 20.08 11.8 20.88 11.92 C 22.56 12.16 24.56 12.88 25.76 14.12 C 26 14.4 26.48 14.96 26.88 15.8 C 27.36 16.76 27.6 17.84 27.6 18.92 C 27.6 19.84 27.32 22.52 25.04 24.32 C 24.6 24.64 24.16 24.92 23.16 25.36 L 24.36 25.72 C 25.24 26 25.92 26.48 26.6 27.16 C 28.32 28.96 28.36 31 28.36 31.92 Z M 18.52 20.12 C 18.52 19.4 18.32 18.96 18.16 18.72 C 17.48 17.64 16.12 17.72 15.8 17.72 L 10.68 17.72 L 10.68 22.48 L 15.6 22.48 C 16.56 22.48 17.64 22.4 18.2 21.44 C 18.52 20.96 18.52 20.36 18.52 20.12 Z M 19.28 31.2 C 19.28 30.88 19.24 30.28 18.88 29.68 C 18.08 28.36 16.4 28.4 16.04 28.4 L 10.64 28.4 L 10.64 33.92 L 16.24 33.92 C 17.24 33.92 18.16 33.72 18.8 32.8 C 19.24 32.16 19.28 31.52 19.28 31.2 Z M 45.6 25.8 C 45.2 25.76 44.8 25.72 44.4 25.72 C 43.76 25.68 40.24 25.48 39.24 28.28 C 39 28.96 39 29.52 39 30.24 L 39 40 L 30.8 40 L 30.8 19.28 L 38.72 19.28 L 38.72 21.08 C 39.12 20.72 39.4 20.48 39.84 20.2 C 41.68 18.92 43.44 18.84 45.6 18.84 L 45.6 25.8 Z M 70.8 29.68 C 70.8 30.8 70.6 34.36 68.12 37.12 C 66.68 38.72 63.6 40.8 58.44 40.8 C 57.24 40.8 53.52 40.76 50.48 38.36 C 48.96 37.16 46.64 34.52 46.64 29.8 C 46.64 26.92 47.52 24.08 49.48 21.96 C 50.88 20.44 53.84 18.36 58.88 18.4 C 59.96 18.4 64.24 18.52 67.32 21.2 C 69.64 23.24 70.8 26.6 70.8 29.68 Z M 62.48 29.48 C 62.48 26.36 61.48 24.92 60 24.4 C 59.4 24.2 58.88 24.2 58.64 24.2 C 57.2 24.24 56.4 24.96 56.04 25.36 C 55.4 26.04 54.84 27.44 54.84 29.56 C 54.84 31.6 55.36 33 55.88 33.72 C 56.2 34.16 56.64 34.52 57.12 34.72 C 57.36 34.84 57.96 35 58.68 35 C 59.64 35 60.52 34.72 61.16 34.08 C 61.88 33.36 62.48 31.8 62.48 29.48 Z M 105.72 19.28 L 99.52 40 L 91.32 40 L 88.6 27.32 L 86.08 40 L 77.88 40 L 71.64 19.28 L 80.04 19.28 L 82.6 32.52 L 85.12 19.28 L 92.2 19.28 L 94.84 32.48 L 97.28 19.28 L 105.72 19.28 Z M 126.76 33.08 C 126.76 34.28 126.52 35.36 125.92 36.44 C 123.56 40.72 118.04 40.8 116.92 40.8 C 113.84 40.8 110.68 39.92 108.08 38.28 C 107.28 37.8 106.56 37.2 105.8 36.64 L 110.44 32.44 C 110.84 32.8 111.2 33.12 111.6 33.44 C 112.28 33.92 114.32 35.2 116.84 35.2 C 117.04 35.2 117.68 35.2 118.2 34.96 C 118.8 34.68 119 34.16 119 33.88 C 119 33.64 118.88 33.44 118.84 33.4 C 118.32 32.6 117.4 32.68 115.84 32.4 C 115.36 32.32 113.4 31.92 111.76 31.36 C 109.84 30.72 108.36 29.96 107.44 28 C 107.08 27.2 106.88 26.4 106.88 25.52 C 106.88 23.72 107.72 22.36 108.08 21.84 C 109.28 20.16 111.64 18.44 116.28 18.44 C 118.76 18.44 121.92 18.96 124.16 20.12 C 124.92 20.52 125.48 20.92 126.16 21.44 L 121.72 25.48 C 121.12 25.08 118.92 23.48 116.4 23.48 C 116.24 23.48 115.68 23.48 115.24 23.68 C 114.76 23.92 114.64 24.36 114.64 24.56 C 114.64 25.08 115.08 25.32 115.2 25.36 C 115.56 25.56 116.36 25.72 117.36 25.96 C 120.4 26.72 122.16 27 123.48 27.68 C 124.52 28.2 126.76 29.8 126.76 33.08 Z M 151.04 31.12 L 136.6 31.12 S 136.6 32.08 136.8 32.72 C 137.08 33.52 137.88 35.04 140.08 35 C 141.36 35 142.04 34.56 142.44 34.2 C 143.28 33.52 143.68 32.6 143.84 32.32 L 150.6 35.16 C 150.4 35.48 150.16 35.92 149.6 36.56 C 148.16 38.24 146.52 39.16 145.8 39.52 C 144.8 40 142.64 40.84 139.68 40.84 C 137.96 40.84 136.32 40.6 134.76 39.96 C 130.48 38.2 128.2 34.04 128.2 29.52 C 128.2 25.24 130.16 22.6 131.36 21.44 C 134.32 18.6 138.44 18.4 139.6 18.4 C 141 18.4 145.24 18.6 148.24 21.84 C 149.24 22.92 150 24.28 150.44 25.68 C 151 27.48 151.04 29.24 151.04 31.12 Z M 142.68 26.76 C 142.64 26.52 142.64 26.12 142.48 25.6 C 141.92 23.88 140.4 23.64 139.76 23.64 C 139.12 23.68 138.72 23.84 138.48 23.96 C 136.96 24.64 136.76 26.32 136.68 26.76 L 142.68 26.76 Z&quot;);fill:url(&quot;#SvgjsLinearGradient3064&quot;);height:auto;inline-size:auto;overflow-clip-margin:0px;overflow-x:visible;overflow-y:visible;perspective-origin:0px 0px;transform-origin:0px 0px;width:auto;"/></g></svg>