<?xml version="1.0" standalone="no"?><!DOCTYPE svg PUBLIC "-//W3C//DTD SVG 1.1//EN" "http://www.w3.org/Graphics/SVG/1.1/DTD/svg11.dtd"><svg width="435.59999999999997" height="279.3764037924709" viewBox="0 0 350 224.4759901913793" class="css-1j8o68f" version="1.1" xmlns="http://www.w3.org/2000/svg" xmlns:xlink="http://www.w3.org/1999/xlink" style="block-size:279.375px;height:279.375px;inline-size:435.594px;perspective-origin:217.797px 139.688px;transform-origin:217.797px 139.688px;width:435.594px;"><defs id="SvgjsDefs2714" style="block-size:auto;height:auto;inline-size:auto;overflow-clip-margin:0px;overflow-x:visible;overflow-y:visible;perspective-origin:0px 0px;transform-origin:0px 0px;width:auto;"/><g id="SvgjsG2715" featurekey="41S5F6-0" transform="matrix(3.8523005763167686,0,0,3.8523005763167686,83.01537440369167,-3.848448554952301)" fill="#a558c8" style="block-size:auto;fill:rgb(165, 88, 200);height:auto;inline-size:auto;overflow-clip-margin:0px;overflow-x:visible;overflow-y:visible;perspective-origin:0px 0px;transform:matrix(3.8523, 0, 0, 3.8523, 83.0154, -3.84845);transform-origin:0px 0px;width:auto;"><g xmlns="http://www.w3.org/2000/svg" style="block-size:auto;fill:rgb(165, 88, 200);height:auto;inline-size:auto;overflow-clip-margin:0px;overflow-x:visible;overflow-y:visible;perspective-origin:0px 0px;transform-origin:0px 0px;width:auto;"><g style="block-size:auto;fill:rgb(165, 88, 200);height:auto;inline-size:auto;overflow-clip-margin:0px;overflow-x:visible;overflow-y:visible;perspective-origin:0px 0px;transform-origin:0px 0px;width:auto;"><circle cx="16.344" cy="41.284" r="1.66" style="block-size:auto;cx:16.344px;cy:41.284px;fill:rgb(165, 88, 200);height:auto;inline-size:auto;overflow-clip-margin:0px;overflow-x:visible;overflow-y:visible;perspective-origin:0px 0px;r:1.66px;transform-origin:0px 0px;width:auto;"/><circle cx="16.344" cy="32.881" r="1.66" style="block-size:auto;cx:16.344px;cy:32.881px;fill:rgb(165, 88, 200);height:auto;inline-size:auto;overflow-clip-margin:0px;overflow-x:visible;overflow-y:visible;perspective-origin:0px 0px;r:1.66px;transform-origin:0px 0px;width:auto;"/></g><polyline fill="none" stroke="#a558c8" stroke-width="2" stroke-linecap="round" stroke-linejoin="round" stroke-miterlimit="10" points="   31.282,27.166 37.361,27.166 37.361,47 10.639,47 10.639,27.166 22.444,27.166  " style="block-size:auto;fill:none;height:auto;inline-size:auto;overflow-clip-margin:0px;overflow-x:visible;overflow-y:visible;perspective-origin:0px 0px;stroke:rgb(165, 88, 200);stroke-linecap:round;stroke-linejoin:round;stroke-miterlimit:10;stroke-width:2px;transform-origin:0px 0px;width:auto;"/><path fill="none" stroke="#a558c8" stroke-width="2" stroke-linecap="round" stroke-linejoin="round" stroke-miterlimit="10" d="   M22.525,15.632v17.275h0.027c0,0.002-0.001,0.004-0.001,0.006c0,2.19,1.776,3.967,3.967,3.967s3.967-1.776,3.967-3.967   c0-0.089-0.021-0.173-0.026-0.259V15.684" style="block-size:auto;d:path(&quot;M 22.525 15.632 V 32.907 H 22.552 C 22.552 32.909 22.551 32.911 22.551 32.913 C 22.551 35.103 24.327 36.88 26.518 36.88 S 30.485 35.104 30.485 32.913 C 30.485 32.824 30.464 32.74 30.459 32.654 V 15.684&quot;);fill:none;height:auto;inline-size:auto;overflow-clip-margin:0px;overflow-x:visible;overflow-y:visible;perspective-origin:0px 0px;stroke:rgb(165, 88, 200);stroke-linecap:round;stroke-linejoin:round;stroke-miterlimit:10;stroke-width:2px;transform-origin:0px 0px;width:auto;"/><circle fill="none" stroke="#a558c8" stroke-width="2" stroke-linecap="round" stroke-linejoin="round" stroke-miterlimit="10" cx="26.505" cy="8.863" r="7.864" style="block-size:auto;cx:26.505px;cy:8.863px;fill:none;height:auto;inline-size:auto;overflow-clip-margin:0px;overflow-x:visible;overflow-y:visible;perspective-origin:0px 0px;r:7.864px;stroke:rgb(165, 88, 200);stroke-linecap:round;stroke-linejoin:round;stroke-miterlimit:10;stroke-width:2px;transform-origin:0px 0px;width:auto;"/></g></g><g id="SvgjsG2716" featurekey="RGwKHf-0" transform="matrix(1.9322073018795927,0,0,1.9322073018795927,-3.323396614513794,185.2908247825197)" fill="#0e2a39" style="block-size:auto;fill:rgb(14, 42, 57);height:auto;inline-size:auto;overflow-clip-margin:0px;overflow-x:visible;overflow-y:visible;perspective-origin:0px 0px;transform:matrix(1.93221, 0, 0, 1.93221, -3.3234, 185.291);transform-origin:0px 0px;width:auto;"><path d="M1.72 20 l0 -13.66 q0.5 -0.1 1.31 -0.1 t1.37 0.1 l0 13.66 q-0.56 0.1 -1.37 0.1 t-1.31 -0.1 z M18.080000000000002 6.220000000000001 l0.14 0.14 l0 13.6 q-0.62 0.14 -1.56 0.14 t-1.64 -0.1 l-3.68 -7.74 q-0.8 -1.76 -1.2 -2.8 l-0.08 0.02 q0.22 2.82 0.22 5.44 l0 5.08 q-0.56 0.1 -1.27 0.1 t-1.23 -0.1 l0 -13.62 q0.58 -0.14 1.52 -0.14 t1.64 0.1 l3.64 7.74 l1.3 2.96 l0.06 -0.02 q-0.2 -2.9 -0.2 -5.48 l0 -3.66 q0 -0.9 0.34 -1.28 t1.14 -0.38 l0.86 0 z M31.18 12.52 l3.1 -0.02 q1.84 0 1.84 1.7 l0 5.24 q-2.38 0.84 -5.22 0.84 q-1.44 0 -2.53 -0.5 t-1.81 -1.42 t-1.08 -2.22 t-0.36 -2.88 q0 -1.84 0.52 -3.2 t1.38 -2.25 t1.99 -1.32 t2.37 -0.43 q2.56 0 4.7 1.44 q-0.06 0.58 -0.43 1.13 t-0.81 0.83 q-1.6 -1.14 -3.36 -1.14 q-3.6 0 -3.6 4.9 t3.58 4.9 q1.1 0 2.12 -0.24 l0 -1.78 q0 -0.44 0.01 -0.77 t0.03 -0.55 l-1.36 0 q-0.7 0 -0.99 -0.28 t-0.29 -0.9 q0 -0.52 0.2 -1.08 z M45.78 16.9 l-0.98 0.02 l-2.8 0 l-0.98 -0.02 l-0.94 3.12 q-0.42 0.1 -1.19 0.1 t-1.25 -0.18 l-0.1 -0.14 l4.46 -13.46 q0.74 -0.1 1.6 -0.1 t1.5 0.12 l4.38 13.46 q-0.58 0.34 -1.39 0.34 t-1.16 -0.3 t-0.59 -1.14 z M41.68000000000001 14.780000000000001 l0.9 -0.02 l1.72 0 l0.84 0.02 l-0.6 -2.04 q-0.68 -2.28 -1.08 -3.88 l-0.12 0 q-0.18 0.86 -0.88 3.38 z M51.040000000000006 19.96 l1.06 -13.6 q0.82 -0.14 1.77 -0.14 t1.73 0.14 l1.54 5.54 q0.62 2.48 0.76 3.42 l0.14 0 q0.14 -0.94 0.76 -3.42 l1.52 -5.54 q0.84 -0.14 1.76 -0.14 t1.76 0.14 l1.06 13.6 q-0.54 0.14 -1.29 0.14 t-1.25 -0.08 l-0.38 -6.42 q-0.16 -2.48 -0.16 -4.34 l-0.14 0 l-2.34 8.7 q-0.66 0.1 -1.37 0.1 t-1.37 -0.1 l-2.34 -8.7 l-0.14 0 q-0.04 2.46 -0.16 4.34 l-0.38 6.42 q-0.5 0.08 -1.25 0.08 t-1.29 -0.14 z M70.48 16.58 l-0.02 1.24 l1.4 -0.04 l4.9 0 q0 0.64 -0.06 0.98 q-0.22 1.28 -1.72 1.28 l-5.62 0 q-0.72 0 -1.13 -0.43 t-0.41 -1.17 l0 -11.96 l0.14 -0.14 l8.34 0 q0.1 0.5 0.1 1.07 t-0.22 1.19 l-5.72 0 l0.02 1.38 l0 2.06 l1.3 -0.02 l3.38 0 q0.16 0.46 0.16 1.1 t-0.16 1.1 l-4.68 0 l0 2.36 z M78.02000000000001 18.8 q0.06 -0.56 0.37 -1.13 t0.71 -0.91 q2.06 1.32 4.04 1.32 q0.96 0 1.52 -0.45 t0.56 -1.13 q-0.04 -1.16 -1.54 -1.82 l-2.36 -1 q-1.4 -0.58 -2.1 -1.49 t-0.7 -2.09 q0 -0.9 0.35 -1.64 t1 -1.27 t1.54 -0.83 t1.97 -0.3 q2.2 0 4.32 1.1 q-0.06 1.22 -0.94 2.04 q-2.02 -0.96 -3.52 -0.96 q-0.96 0 -1.47 0.44 t-0.51 1.08 q0 0.92 1.42 1.52 l2.36 1 q1.44 0.6 2.22 1.58 t0.78 2.26 q0 0.9 -0.32 1.67 t-0.97 1.32 t-1.62 0.86 t-2.29 0.31 q-2.56 0 -4.82 -1.48 z M95.98000000000002 18.86 l-2.44 -12.36 q0.7 -0.32 1.42 -0.32 t1.04 0.31 t0.46 1.15 l1.04 5.96 q0.44 2.52 0.52 3.31 t0.11 0.82 t0.15 0.03 l1.9 -11.14 q0.76 -0.14 1.76 -0.14 t1.7 0.14 l1.74 10.9 q0.04 0.24 0.2 0.24 q0.2 -1.7 0.66 -4.2 l1.32 -7.22 q0.5 -0.1 1.22 -0.1 t1.26 0.18 l0.14 0.16 l-2.76 13.4 q-0.92 0.12 -1.98 0.12 t-1.47 -0.24 t-0.51 -1 l-0.82 -4.82 q-0.46 -2.78 -0.68 -4.78 l-0.16 0 q-0.26 1.96 -0.76 4.78 l-1.06 5.94 q-0.96 0.12 -1.98 0.12 t-1.44 -0.24 t-0.58 -1 z M114.96000000000002 16.58 l-0.02 1.24 l1.4 -0.04 l4.9 0 q0 0.64 -0.06 0.98 q-0.22 1.28 -1.72 1.28 l-5.62 0 q-0.72 0 -1.13 -0.43 t-0.41 -1.17 l0 -11.96 l0.14 -0.14 l8.34 0 q0.1 0.5 0.1 1.07 t-0.22 1.19 l-5.72 0 l0.02 1.38 l0 2.06 l1.3 -0.02 l3.38 0 q0.16 0.46 0.16 1.1 t-0.16 1.1 l-4.68 0 l0 2.36 z M132.82000000000005 8.56 l0.02 1.48 l0 9.96 q-0.58 0.1 -1.35 0.1 t-1.35 -0.1 l0 -9.96 l0.02 -1.48 l-1.22 0.02 l-2.22 0 q-0.1 -0.5 -0.1 -1.12 t0.1 -1.12 l9.56 0 q0.14 0.5 0.14 1.09 t-0.34 0.87 t-1.1 0.28 l-0.94 0 l-1.22 -0.02 l0 0 z M147.54000000000005 10.46 q0 0.66 -0.19 1.25 t-0.53 1.06 t-0.79 0.82 t-0.99 0.53 q0.52 0.18 0.87 0.62 t0.61 1.14 l0.74 2.02 q0.18 0.5 0.4 0.86 t0.54 0.6 q-0.26 0.36 -0.75 0.58 t-1.11 0.22 q-0.6 0 -0.96 -0.36 t-0.66 -1.22 l-0.84 -2.38 q-0.26 -0.7 -0.66 -1.07 t-1.2 -0.37 l-1.22 0 l0 5.24 q-0.28 0.04 -0.62 0.07 t-0.74 0.03 q-0.74 0 -1.3 -0.1 l0 -13.56 l0.14 -0.12 q1.62 -0.04 2.75 -0.06 t1.81 -0.02 q2.16 0 3.43 1.08 t1.27 3.14 z M140.80000000000004 8.28 l0 4.4 q1.04 -0.06 1.84 -0.06 q2.14 0 2.14 -2.16 t-2.14 -2.16 l-1.07 0 t-0.77 -0.02 z M160.30000000000004 6.34 l0 8.74 q0 2.5 -1.37 3.85 t-3.87 1.35 q-2.48 0 -3.85 -1.35 t-1.37 -3.85 l0 -8.72 l0.12 -0.14 l1 0 q0.8 0 1.18 0.41 t0.38 1.31 l0 7.16 q0 3.04 2.54 3.04 q2.56 0 2.56 -3.04 l0 -8.76 q0.56 -0.1 1.34 -0.1 t1.34 0.1 z M162.22000000000003 18.8 q0.06 -0.56 0.37 -1.13 t0.71 -0.91 q2.06 1.32 4.04 1.32 q0.96 0 1.52 -0.45 t0.56 -1.13 q-0.04 -1.16 -1.54 -1.82 l-2.36 -1 q-1.4 -0.58 -2.1 -1.49 t-0.7 -2.09 q0 -0.9 0.35 -1.64 t1 -1.27 t1.54 -0.83 t1.97 -0.3 q2.2 0 4.32 1.1 q-0.06 1.22 -0.94 2.04 q-2.02 -0.96 -3.52 -0.96 q-0.96 0 -1.47 0.44 t-0.51 1.08 q0 0.92 1.42 1.52 l2.36 1 q1.44 0.6 2.22 1.58 t0.78 2.26 q0 0.9 -0.32 1.67 t-0.97 1.32 t-1.62 0.86 t-2.29 0.31 q-2.56 0 -4.82 -1.48 z M179.26000000000005 8.56 l0.02 1.48 l0 9.96 q-0.58 0.1 -1.35 0.1 t-1.35 -0.1 l0 -9.96 l0.02 -1.48 l-1.22 0.02 l-2.22 0 q-0.1 -0.5 -0.1 -1.12 t0.1 -1.12 l9.56 0 q0.14 0.5 0.14 1.09 t-0.34 0.87 t-1.1 0.28 l-0.94 0 l-1.22 -0.02 l0 0 z" style="block-size:auto;d:path(&quot;M 1.72 20 L 1.72 6.34 Q 2.22 6.24 3.03 6.24 T 4.4 6.34 L 4.4 20 Q 3.84 20.1 3.03 20.1 T 1.72 20 Z M 18.08 6.22 L 18.22 6.36 L 18.22 19.96 Q 17.6 20.1 16.66 20.1 T 15.02 20 L 11.34 12.26 Q 10.54 10.5 10.14 9.46 L 10.06 9.48 Q 10.28 12.3 10.28 14.92 L 10.28 20 Q 9.72 20.1 9.01 20.1 T 7.78 20 L 7.78 6.38 Q 8.36 6.24 9.3 6.24 T 10.94 6.34 L 14.58 14.08 L 15.88 17.04 L 15.94 17.02 Q 15.74 14.12 15.74 11.54 L 15.74 7.88 Q 15.74 6.98 16.08 6.6 T 17.22 6.22 L 18.08 6.22 Z M 31.18 12.52 L 34.28 12.5 Q 36.12 12.5 36.12 14.2 L 36.12 19.44 Q 33.74 20.28 30.9 20.28 Q 29.46 20.28 28.37 19.78 T 26.56 18.36 T 25.48 16.14 T 25.12 13.26 Q 25.12 11.42 25.64 10.06 T 27.02 7.81 T 29.01 6.49 T 31.38 6.06 Q 33.94 6.06 36.08 7.5 Q 36.02 8.08 35.65 8.63 T 34.84 9.46 Q 33.24 8.32 31.48 8.32 Q 27.88 8.32 27.88 13.22 T 31.46 18.12 Q 32.56 18.12 33.58 17.88 L 33.58 16.1 Q 33.58 15.66 33.59 15.33 T 33.62 14.78 L 32.26 14.78 Q 31.56 14.78 31.27 14.5 T 30.98 13.6 Q 30.98 13.08 31.18 12.52 Z M 45.78 16.9 L 44.8 16.92 L 42 16.92 L 41.02 16.9 L 40.08 20.02 Q 39.66 20.12 38.89 20.12 T 37.64 19.94 L 37.54 19.8 L 42 6.34 Q 42.74 6.24 43.6 6.24 T 45.1 6.36 L 49.48 19.82 Q 48.9 20.16 48.09 20.16 T 46.93 19.86 T 46.34 18.72 Z M 41.68 14.78 L 42.58 14.76 L 44.3 14.76 L 45.14 14.78 L 44.54 12.74 Q 43.86 10.46 43.46 8.86 L 43.34 8.86 Q 43.16 9.72 42.46 12.24 Z M 51.04 19.96 L 52.1 6.36 Q 52.92 6.22 53.87 6.22 T 55.6 6.36 L 57.14 11.9 Q 57.76 14.38 57.9 15.32 L 58.04 15.32 Q 58.18 14.38 58.8 11.9 L 60.32 6.36 Q 61.16 6.22 62.08 6.22 T 63.84 6.36 L 64.9 19.96 Q 64.36 20.1 63.61 20.1 T 62.36 20.02 L 61.98 13.6 Q 61.82 11.12 61.82 9.26 L 61.68 9.26 L 59.34 17.96 Q 58.68 18.06 57.97 18.06 T 56.6 17.96 L 54.26 9.26 L 54.12 9.26 Q 54.08 11.72 53.96 13.6 L 53.58 20.02 Q 53.08 20.1 52.33 20.1 T 51.04 19.96 Z M 70.48 16.58 L 70.46 17.82 L 71.86 17.78 L 76.76 17.78 Q 76.76 18.42 76.7 18.76 Q 76.48 20.04 74.98 20.04 L 69.36 20.04 Q 68.64 20.04 68.23 19.61 T 67.82 18.44 L 67.82 6.48 L 67.96 6.34 L 76.3 6.34 Q 76.4 6.84 76.4 7.41 T 76.18 8.6 L 70.46 8.6 L 70.48 9.98 L 70.48 12.04 L 71.78 12.02 L 75.16 12.02 Q 75.32 12.48 75.32 13.12 T 75.16 14.22 L 70.48 14.22 L 70.48 16.58 Z M 78.02 18.8 Q 78.08 18.24 78.39 17.67 T 79.1 16.76 Q 81.16 18.08 83.14 18.08 Q 84.1 18.08 84.66 17.63 T 85.22 16.5 Q 85.18 15.34 83.68 14.68 L 81.32 13.68 Q 79.92 13.1 79.22 12.19 T 78.52 10.1 Q 78.52 9.2 78.87 8.46 T 79.87 7.19 T 81.41 6.36 T 83.38 6.06 Q 85.58 6.06 87.7 7.16 Q 87.64 8.38 86.76 9.2 Q 84.74 8.24 83.24 8.24 Q 82.28 8.24 81.77 8.68 T 81.26 9.76 Q 81.26 10.68 82.68 11.28 L 85.04 12.28 Q 86.48 12.88 87.26 13.86 T 88.04 16.12 Q 88.04 17.02 87.72 17.79 T 86.75 19.11 T 85.13 19.97 T 82.84 20.28 Q 80.28 20.28 78.02 18.8 Z M 95.98 18.86 L 93.54 6.5 Q 94.24 6.18 94.96 6.18 T 96 6.49 T 96.46 7.64 L 97.5 13.6 Q 97.94 16.12 98.02 16.91 T 98.13 17.73 T 98.28 17.76 L 100.18 6.62 Q 100.94 6.48 101.94 6.48 T 103.64 6.62 L 105.38 17.52 Q 105.42 17.76 105.58 17.76 Q 105.78 16.06 106.24 13.56 L 107.56 6.34 Q 108.06 6.24 108.78 6.24 T 110.04 6.42 L 110.18 6.58 L 107.42 19.98 Q 106.5 20.1 105.44 20.1 T 103.97 19.86 T 103.46 18.86 L 102.64 14.04 Q 102.18 11.26 101.96 9.26 L 101.8 9.26 Q 101.54 11.22 101.04 14.04 L 99.98 19.98 Q 99.02 20.1 98 20.1 T 96.56 19.86 T 95.98 18.86 Z M 114.96 16.58 L 114.94 17.82 L 116.34 17.78 L 121.24 17.78 Q 121.24 18.42 121.18 18.76 Q 120.96 20.04 119.46 20.04 L 113.84 20.04 Q 113.12 20.04 112.71 19.61 T 112.3 18.44 L 112.3 6.48 L 112.44 6.34 L 120.78 6.34 Q 120.88 6.84 120.88 7.41 T 120.66 8.6 L 114.94 8.6 L 114.96 9.98 L 114.96 12.04 L 116.26 12.02 L 119.64 12.02 Q 119.8 12.48 119.8 13.12 T 119.64 14.22 L 114.96 14.22 L 114.96 16.58 Z M 132.82 8.56 L 132.84 10.04 L 132.84 20 Q 132.26 20.1 131.49 20.1 T 130.14 20 L 130.14 10.04 L 130.16 8.56 L 128.94 8.58 L 126.72 8.58 Q 126.62 8.08 126.62 7.46 T 126.72 6.34 L 136.28 6.34 Q 136.42 6.84 136.42 7.43 T 136.08 8.3 T 134.98 8.58 L 134.04 8.58 L 132.82 8.56 L 132.82 8.56 Z M 147.54 10.46 Q 147.54 11.12 147.35 11.71 T 146.82 12.77 T 146.03 13.59 T 145.04 14.12 Q 145.56 14.3 145.91 14.74 T 146.52 15.88 L 147.26 17.9 Q 147.44 18.4 147.66 18.76 T 148.2 19.36 Q 147.94 19.72 147.45 19.94 T 146.34 20.16 Q 145.74 20.16 145.38 19.8 T 144.72 18.58 L 143.88 16.2 Q 143.62 15.5 143.22 15.13 T 142.02 14.76 L 140.8 14.76 L 140.8 20 Q 140.52 20.04 140.18 20.07 T 139.44 20.1 Q 138.7 20.1 138.14 20 L 138.14 6.44 L 138.28 6.32 Q 139.9 6.28 141.03 6.26 T 142.84 6.24 Q 145 6.24 146.27 7.32 T 147.54 10.46 Z M 140.8 8.28 L 140.8 12.68 Q 141.84 12.62 142.64 12.62 Q 144.78 12.62 144.78 10.46 T 142.64 8.3 L 141.57 8.3 T 140.8 8.28 Z M 160.3 6.34 L 160.3 15.08 Q 160.3 17.58 158.93 18.93 T 155.06 20.28 Q 152.58 20.28 151.21 18.93 T 149.84 15.08 L 149.84 6.36 L 149.96 6.22 L 150.96 6.22 Q 151.76 6.22 152.14 6.63 T 152.52 7.94 L 152.52 15.1 Q 152.52 18.14 155.06 18.14 Q 157.62 18.14 157.62 15.1 L 157.62 6.34 Q 158.18 6.24 158.96 6.24 T 160.3 6.34 Z M 162.22 18.8 Q 162.28 18.24 162.59 17.67 T 163.3 16.76 Q 165.36 18.08 167.34 18.08 Q 168.3 18.08 168.86 17.63 T 169.42 16.5 Q 169.38 15.34 167.88 14.68 L 165.52 13.68 Q 164.12 13.1 163.42 12.19 T 162.72 10.1 Q 162.72 9.2 163.07 8.46 T 164.07 7.19 T 165.61 6.36 T 167.58 6.06 Q 169.78 6.06 171.9 7.16 Q 171.84 8.38 170.96 9.2 Q 168.94 8.24 167.44 8.24 Q 166.48 8.24 165.97 8.68 T 165.46 9.76 Q 165.46 10.68 166.88 11.28 L 169.24 12.28 Q 170.68 12.88 171.46 13.86 T 172.24 16.12 Q 172.24 17.02 171.92 17.79 T 170.95 19.11 T 169.33 19.97 T 167.04 20.28 Q 164.48 20.28 162.22 18.8 Z M 179.26 8.56 L 179.28 10.04 L 179.28 20 Q 178.7 20.1 177.93 20.1 T 176.58 20 L 176.58 10.04 L 176.6 8.56 L 175.38 8.58 L 173.16 8.58 Q 173.06 8.08 173.06 7.46 T 173.16 6.34 L 182.72 6.34 Q 182.86 6.84 182.86 7.43 T 182.52 8.3 T 181.42 8.58 L 180.48 8.58 L 179.26 8.56 L 179.26 8.56 Z&quot;);fill:rgb(14, 42, 57);height:auto;inline-size:auto;overflow-clip-margin:0px;overflow-x:visible;overflow-y:visible;perspective-origin:0px 0px;transform-origin:0px 0px;width:auto;"/></g></svg>