<?xml version="1.0" standalone="no"?><!DOCTYPE svg PUBLIC "-//W3C//DTD SVG 1.1//EN" "http://www.w3.org/Graphics/SVG/1.1/DTD/svg11.dtd"><svg width="425.6066178224897" height="287.49375" viewBox="0 0 350 236.42210502931454" version="1.1" xmlns="http://www.w3.org/2000/svg" xmlns:xlink="http://www.w3.org/1999/xlink" style="block-size:287.484px;height:287.484px;inline-size:425.594px;perspective-origin:212.797px 143.734px;transform-origin:212.797px 143.742px;width:425.594px;">
          <defs id="SvgjsDefs1110" style="block-size:auto;height:auto;inline-size:auto;overflow-clip-margin:0px;overflow-x:visible;overflow-y:visible;perspective-origin:0px 0px;transform-origin:0px 0px;width:auto;">
            <linearGradient id="SvgjsLinearGradient1115" style="block-size:auto;height:auto;inline-size:auto;overflow-clip-margin:0px;overflow-x:visible;overflow-y:visible;perspective-origin:0px 0px;transform-origin:0px 0px;width:auto;">
              <stop id="SvgjsStop1116" stop-color="#8f5e25" offset="0" style="block-size:auto;height:auto;inline-size:auto;overflow-clip-margin:0px;overflow-x:visible;overflow-y:visible;perspective-origin:50% 50%;stop-color:rgb(143, 94, 37);transform-origin:0px 0px;width:auto;"/>
              <stop id="SvgjsStop1117" stop-color="#fbf4a1" offset="0.5" style="block-size:auto;height:auto;inline-size:auto;overflow-clip-margin:0px;overflow-x:visible;overflow-y:visible;perspective-origin:50% 50%;stop-color:rgb(251, 244, 161);transform-origin:0px 0px;width:auto;"/>
              <stop id="SvgjsStop1118" stop-color="#8f5e25" offset="1" style="block-size:auto;height:auto;inline-size:auto;overflow-clip-margin:0px;overflow-x:visible;overflow-y:visible;perspective-origin:50% 50%;stop-color:rgb(143, 94, 37);transform-origin:0px 0px;width:auto;"/>
            </linearGradient>
            <linearGradient id="SvgjsLinearGradient1119" style="block-size:auto;height:auto;inline-size:auto;overflow-clip-margin:0px;overflow-x:visible;overflow-y:visible;perspective-origin:0px 0px;transform-origin:0px 0px;width:auto;">
              <stop id="SvgjsStop1120" stop-color="#8f5e25" offset="0" style="block-size:auto;height:auto;inline-size:auto;overflow-clip-margin:0px;overflow-x:visible;overflow-y:visible;perspective-origin:50% 50%;stop-color:rgb(143, 94, 37);transform-origin:0px 0px;width:auto;"/>
              <stop id="SvgjsStop1121" stop-color="#fbf4a1" offset="0.5" style="block-size:auto;height:auto;inline-size:auto;overflow-clip-margin:0px;overflow-x:visible;overflow-y:visible;perspective-origin:50% 50%;stop-color:rgb(251, 244, 161);transform-origin:0px 0px;width:auto;"/>
              <stop id="SvgjsStop1122" stop-color="#8f5e25" offset="1" style="block-size:auto;height:auto;inline-size:auto;overflow-clip-margin:0px;overflow-x:visible;overflow-y:visible;perspective-origin:50% 50%;stop-color:rgb(143, 94, 37);transform-origin:0px 0px;width:auto;"/>
            </linearGradient>
          </defs>
          <g id="SvgjsG1111" featurekey="ECw45b-0" transform="matrix(2.2126343159637676,0,0,2.2126343159637676,64.68580428243557,-15.974114944103192)" fill="url(#SvgjsLinearGradient1115)" style="block-size:auto;fill:url(&quot;#SvgjsLinearGradient1115&quot;);height:auto;inline-size:auto;overflow-clip-margin:0px;overflow-x:visible;overflow-y:visible;perspective-origin:0px 0px;transform:matrix(2.21263, 0, 0, 2.21263, 64.6858, -15.9741);transform-origin:0px 0px;width:auto;">
            <g xmlns="http://www.w3.org/2000/svg" style="block-size:auto;fill:url(&quot;#SvgjsLinearGradient1115&quot;);height:auto;inline-size:auto;overflow-clip-margin:0px;overflow-x:visible;overflow-y:visible;perspective-origin:0px 0px;transform-origin:0px 0px;width:auto;">
              <path fill="url(#SvgjsLinearGradient1115)" d="M68.967,34.45L48.875,20.184c-0.397-0.282-0.929-0.282-1.326,0L27.457,34.45   c-0.302,0.215-0.482,0.562-0.482,0.934V69.31c0,0.37,0.179,0.717,0.479,0.932l20.092,14.359c0.199,0.142,0.432,0.213,0.666,0.213   s0.467-0.071,0.666-0.213l20.092-14.359c0.301-0.215,0.479-0.562,0.479-0.932V35.384C69.449,35.013,69.269,34.665,68.967,34.45z    M29.265,36.792l8.103,4.503v22.13l-8.103,4.48V36.792z M58.413,40.108l-9.527-6.604V23.001l17.698,12.566L58.413,40.108z    M48.211,69.128l-8.944-5.965V41.548l8.944-6.2l8.944,6.2v21.614L48.211,69.128z M47.537,33.504l-9.527,6.604l-8.171-4.541   l17.698-12.566V33.504z M38.014,64.61l9.523,6.352V81.78L29.838,69.131L38.014,64.61z M48.886,70.962l9.524-6.352l8.175,4.521   L48.886,81.78V70.962z M59.056,63.425v-22.13l8.103-4.503v31.113L59.056,63.425z M36.9,16.18c-0.22-0.23-0.35-0.53-0.35-0.85   c0-0.31,0.13-0.61,0.35-0.84c0.45-0.44,1.24-0.44,1.68,0c0.23,0.23,0.35,0.53,0.35,0.84c0,0.32-0.12,0.62-0.34,0.85   c-0.23,0.22-0.53,0.35-0.85,0.35C37.43,16.53,37.12,16.4,36.9,16.18z M57.063,14.842c0-0.497,0.403-0.9,0.9-0.9h1.304v-1.303   c0-0.497,0.403-0.9,0.9-0.9s0.9,0.403,0.9,0.9v1.303h1.301c0.497,0,0.9,0.403,0.9,0.9s-0.403,0.9-0.9,0.9h-1.301v1.302   c0,0.497-0.403,0.9-0.9,0.9s-0.9-0.403-0.9-0.9v-1.302h-1.304C57.466,15.742,57.063,15.339,57.063,14.842z M20.25,63.18   c0.22,0.22,0.35,0.53,0.35,0.84c0,0.31-0.13,0.62-0.35,0.84c-0.22,0.22-0.53,0.35-0.84,0.35s-0.62-0.13-0.84-0.35   c-0.22-0.22-0.35-0.53-0.35-0.84c0-0.32,0.13-0.62,0.35-0.84C19.01,62.73,19.81,62.73,20.25,63.18z M34.527,85.159   c0,0.497-0.403,0.9-0.9,0.9h-1.302v1.3c0,0.497-0.403,0.9-0.9,0.9s-0.9-0.403-0.9-0.9v-1.3h-1.303c-0.497,0-0.9-0.403-0.9-0.9   s0.403-0.9,0.9-0.9h1.303v-1.303c0-0.497,0.403-0.9,0.9-0.9s0.9,0.403,0.9,0.9v1.303h1.302   C34.124,84.259,34.527,84.662,34.527,85.159z M61.73,86.52c0.22,0.22,0.35,0.53,0.35,0.84s-0.13,0.62-0.35,0.84   c-0.22,0.22-0.53,0.35-0.84,0.35s-0.62-0.13-0.84-0.35c-0.23-0.22-0.35-0.53-0.35-0.84s0.12-0.62,0.34-0.84   C60.49,86.07,61.28,86.07,61.73,86.52z M81.493,66.203c0,0.497-0.403,0.9-0.9,0.9h-1.302v1.3c0,0.497-0.403,0.9-0.9,0.9   s-0.9-0.403-0.9-0.9v-1.3h-1.302c-0.497,0-0.9-0.403-0.9-0.9s0.403-0.9,0.9-0.9h1.302v-1.302c0-0.497,0.403-0.9,0.9-0.9   s0.9,0.403,0.9,0.9v1.302h1.302C81.09,65.303,81.493,65.706,81.493,66.203z" style="block-size:auto;d:path(&quot;M 68.967 34.45 L 48.875 20.184 C 48.478 19.902 47.946 19.902 47.549 20.184 L 27.457 34.45 C 27.155 34.665 26.975 35.012 26.975 35.384 V 69.31 C 26.975 69.68 27.154 70.027 27.454 70.242 L 47.546 84.601 C 47.745 84.743 47.978 84.814 48.212 84.814 S 48.679 84.743 48.878 84.601 L 68.97 70.242 C 69.271 70.027 69.449 69.68 69.449 69.31 V 35.384 C 69.449 35.013 69.269 34.665 68.967 34.45 Z M 29.265 36.792 L 37.368 41.295 V 63.425 L 29.265 67.905 V 36.792 Z M 58.413 40.108 L 48.886 33.504 V 23.001 L 66.584 35.567 L 58.413 40.108 Z M 48.211 69.128 L 39.267 63.163 V 41.548 L 48.211 35.348 L 57.155 41.548 V 63.162 L 48.211 69.128 Z M 47.537 33.504 L 38.01 40.108 L 29.839 35.567 L 47.537 23.001 V 33.504 Z M 38.014 64.61 L 47.537 70.962 V 81.78 L 29.838 69.131 L 38.014 64.61 Z M 48.886 70.962 L 58.41 64.61 L 66.585 69.131 L 48.886 81.78 V 70.962 Z M 59.056 63.425 V 41.295 L 67.159 36.792 V 67.905 L 59.056 63.425 Z M 36.9 16.18 C 36.68 15.95 36.55 15.65 36.55 15.33 C 36.55 15.02 36.68 14.72 36.9 14.49 C 37.35 14.05 38.14 14.05 38.58 14.49 C 38.81 14.72 38.93 15.02 38.93 15.33 C 38.93 15.65 38.81 15.95 38.59 16.18 C 38.36 16.4 38.06 16.53 37.74 16.53 C 37.43 16.53 37.12 16.4 36.9 16.18 Z M 57.063 14.842 C 57.063 14.345 57.466 13.942 57.963 13.942 H 59.267 V 12.639 C 59.267 12.142 59.67 11.739 60.167 11.739 S 61.067 12.142 61.067 12.639 V 13.942 H 62.368 C 62.865 13.942 63.268 14.345 63.268 14.842 S 62.865 15.742 62.368 15.742 H 61.067 V 17.044 C 61.067 17.541 60.664 17.944 60.167 17.944 S 59.267 17.541 59.267 17.044 V 15.742 H 57.963 C 57.466 15.742 57.063 15.339 57.063 14.842 Z M 20.25 63.18 C 20.47 63.4 20.6 63.71 20.6 64.02 C 20.6 64.33 20.47 64.64 20.25 64.86 C 20.03 65.08 19.72 65.21 19.41 65.21 S 18.79 65.08 18.57 64.86 C 18.35 64.64 18.22 64.33 18.22 64.02 C 18.22 63.7 18.35 63.4 18.57 63.18 C 19.01 62.73 19.81 62.73 20.25 63.18 Z M 34.527 85.159 C 34.527 85.656 34.124 86.059 33.627 86.059 H 32.325 V 87.359 C 32.325 87.856 31.922 88.259 31.425 88.259 S 30.525 87.856 30.525 87.359 V 86.059 H 29.222 C 28.725 86.059 28.322 85.656 28.322 85.159 S 28.725 84.259 29.222 84.259 H 30.525 V 82.956 C 30.525 82.459 30.928 82.056 31.425 82.056 S 32.325 82.459 32.325 82.956 V 84.259 H 33.627 C 34.124 84.259 34.527 84.662 34.527 85.159 Z M 61.73 86.52 C 61.95 86.74 62.08 87.05 62.08 87.36 S 61.95 87.98 61.73 88.2 C 61.51 88.42 61.2 88.55 60.89 88.55 S 60.27 88.42 60.05 88.2 C 59.82 87.98 59.7 87.67 59.7 87.36 S 59.82 86.74 60.04 86.52 C 60.49 86.07 61.28 86.07 61.73 86.52 Z M 81.493 66.203 C 81.493 66.7 81.09 67.103 80.593 67.103 H 79.291 V 68.403 C 79.291 68.9 78.888 69.303 78.391 69.303 S 77.491 68.9 77.491 68.403 V 67.103 H 76.189 C 75.692 67.103 75.289 66.7 75.289 66.203 S 75.692 65.303 76.189 65.303 H 77.491 V 64.001 C 77.491 63.504 77.894 63.101 78.391 63.101 S 79.291 63.504 79.291 64.001 V 65.303 H 80.593 C 81.09 65.303 81.493 65.706 81.493 66.203 Z&quot;);fill:url(&quot;#SvgjsLinearGradient1115&quot;);height:auto;inline-size:auto;overflow-clip-margin:0px;overflow-x:visible;overflow-y:visible;perspective-origin:0px 0px;transform-origin:0px 0px;width:auto;">
              </path>
            </g>
          </g>
          
        </svg>