<?xml version="1.0" standalone="no"?><!DOCTYPE svg PUBLIC "-//W3C//DTD SVG 1.1//EN" "http://www.w3.org/Graphics/SVG/1.1/DTD/svg11.dtd"><svg width="435.59999999999997" height="209.2972972972973" viewBox="0 0 370 177.77777777777777" class="css-1j8o68f" version="1.1" xmlns="http://www.w3.org/2000/svg" xmlns:xlink="http://www.w3.org/1999/xlink" style="block-size:209.297px;height:209.297px;inline-size:435.594px;perspective-origin:217.797px 104.641px;transform-origin:217.797px 104.648px;width:435.594px;"><defs id="SvgjsDefs1019" style="block-size:auto;height:auto;inline-size:auto;overflow-clip-margin:0px;overflow-x:visible;overflow-y:visible;perspective-origin:0px 0px;transform-origin:0px 0px;width:auto;"><linearGradient id="SvgjsLinearGradient1024" style="block-size:auto;height:auto;inline-size:auto;overflow-clip-margin:0px;overflow-x:visible;overflow-y:visible;perspective-origin:0px 0px;transform-origin:0px 0px;width:auto;"><stop id="SvgjsStop1025" stop-color="#8f5e25" offset="0" style="block-size:auto;height:auto;inline-size:auto;overflow-clip-margin:0px;overflow-x:visible;overflow-y:visible;perspective-origin:50% 50%;stop-color:rgb(143, 94, 37);transform-origin:0px 0px;width:auto;"/><stop id="SvgjsStop1026" stop-color="#fbf4a1" offset="0.5" style="block-size:auto;height:auto;inline-size:auto;overflow-clip-margin:0px;overflow-x:visible;overflow-y:visible;perspective-origin:50% 50%;stop-color:rgb(251, 244, 161);transform-origin:0px 0px;width:auto;"/><stop id="SvgjsStop1027" stop-color="#8f5e25" offset="1" style="block-size:auto;height:auto;inline-size:auto;overflow-clip-margin:0px;overflow-x:visible;overflow-y:visible;perspective-origin:50% 50%;stop-color:rgb(143, 94, 37);transform-origin:0px 0px;width:auto;"/></linearGradient><linearGradient id="SvgjsLinearGradient1028" style="block-size:auto;height:auto;inline-size:auto;overflow-clip-margin:0px;overflow-x:visible;overflow-y:visible;perspective-origin:0px 0px;transform-origin:0px 0px;width:auto;"><stop id="SvgjsStop1029" stop-color="#8f5e25" offset="0" style="block-size:auto;height:auto;inline-size:auto;overflow-clip-margin:0px;overflow-x:visible;overflow-y:visible;perspective-origin:50% 50%;stop-color:rgb(143, 94, 37);transform-origin:0px 0px;width:auto;"/><stop id="SvgjsStop1030" stop-color="#fbf4a1" offset="0.5" style="block-size:auto;height:auto;inline-size:auto;overflow-clip-margin:0px;overflow-x:visible;overflow-y:visible;perspective-origin:50% 50%;stop-color:rgb(251, 244, 161);transform-origin:0px 0px;width:auto;"/><stop id="SvgjsStop1031" stop-color="#8f5e25" offset="1" style="block-size:auto;height:auto;inline-size:auto;overflow-clip-margin:0px;overflow-x:visible;overflow-y:visible;perspective-origin:50% 50%;stop-color:rgb(143, 94, 37);transform-origin:0px 0px;width:auto;"/></linearGradient></defs><g id="SvgjsG1020" featurekey="symbolFeature-0" transform="matrix(0.3472222222222222,0,0,0.3472222222222222,-38.888888888888886,0)" fill="url(#SvgjsLinearGradient1024)" style="block-size:auto;fill:url(&quot;#SvgjsLinearGradient1024&quot;);height:auto;inline-size:auto;overflow-clip-margin:0px;overflow-x:visible;overflow-y:visible;perspective-origin:0px 0px;transform:matrix(0.347222, 0, 0, 0.347222, -38.8889, 0);transform-origin:0px 0px;width:auto;"><path xmlns="http://www.w3.org/2000/svg" d="M384,128h-18.25c-6-22.938-24.188-41.031-47.375-46.375C313.031,58.438,294.969,40.25,272,34.25V16c0-8.844-7.156-16-16-16  s-16,7.156-16,16v18.25c-22.938,6-41.031,24.188-46.375,47.375C170.438,86.969,152.25,105.063,146.25,128H128  c-8.844,0-16,7.156-16,16s7.156,16,16,16h18.25c6,22.938,24.188,41.031,47.375,46.375c5.344,23.188,23.438,41.375,46.375,47.375V448  h-16c-8.844,0-16,7.156-16,16s7.156,16,16,16h16v16c0,8.844,7.156,16,16,16s16-7.156,16-16v-16h16c8.844,0,16-7.156,16-16  s-7.156-16-16-16h-16v-32h16c8.844,0,16-7.156,16-16s-7.156-16-16-16h-16V253.75c22.969-6,41.031-24.188,46.375-47.375  c23.188-5.344,41.375-23.438,47.375-46.375H384c8.844,0,16-7.156,16-16S392.844,128,384,128z M304,176h-16v16  c0,17.625-14.375,32-32,32s-32-14.375-32-32v-16h-16c-17.625,0-32-14.375-32-32s14.375-32,32-32h16V96c0-17.625,14.375-32,32-32  s32,14.375,32,32v16h16c17.656,0,32,14.375,32,32S321.656,176,304,176z" style="block-size:auto;d:path(&quot;M 384 128 H 365.75 C 359.75 105.062 341.562 86.969 318.375 81.625 C 313.031 58.438 294.969 40.25 272 34.25 V 16 C 272 7.156 264.844 0 256 0 S 240 7.156 240 16 V 34.25 C 217.062 40.25 198.969 58.438 193.625 81.625 C 170.438 86.969 152.25 105.063 146.25 128 H 128 C 119.156 128 112 135.156 112 144 S 119.156 160 128 160 H 146.25 C 152.25 182.938 170.438 201.031 193.625 206.375 C 198.969 229.563 217.063 247.75 240 253.75 V 448 H 224 C 215.156 448 208 455.156 208 464 S 215.156 480 224 480 H 240 V 496 C 240 504.844 247.156 512 256 512 S 272 504.844 272 496 V 480 H 288 C 296.844 480 304 472.844 304 464 S 296.844 448 288 448 H 272 V 416 H 288 C 296.844 416 304 408.844 304 400 S 296.844 384 288 384 H 272 V 253.75 C 294.969 247.75 313.031 229.562 318.375 206.375 C 341.563 201.031 359.75 182.937 365.75 160 H 384 C 392.844 160 400 152.844 400 144 S 392.844 128 384 128 Z M 304 176 H 288 V 192 C 288 209.625 273.625 224 256 224 S 224 209.625 224 192 V 176 H 208 C 190.375 176 176 161.625 176 144 S 190.375 112 208 112 H 224 V 96 C 224 78.375 238.375 64 256 64 S 288 78.375 288 96 V 112 H 304 C 321.656 112 336 126.375 336 144 S 321.656 176 304 176 Z&quot;);fill:url(&quot;#SvgjsLinearGradient1024&quot;);height:auto;inline-size:auto;overflow-clip-margin:0px;overflow-x:visible;overflow-y:visible;perspective-origin:0px 0px;transform-origin:0px 0px;width:auto;"/></g><g id="SvgjsG1021" featurekey="nameFeature-0" transform="matrix(2.351392030827576,0,0,2.351392030827576,115.86154948755254,19.34762917927678)" fill="url(#SvgjsLinearGradient1028)" style="block-size:auto;fill:url(&quot;#SvgjsLinearGradient1028&quot;);height:auto;inline-size:auto;overflow-clip-margin:0px;overflow-x:visible;overflow-y:visible;perspective-origin:0px 0px;transform:matrix(2.35139, 0, 0, 2.35139, 115.862, 19.3476);transform-origin:0px 0px;width:auto;"><path d="M21.6 40 l-19.84 0 l0 -28.24 l8.92 0 l0 21.12 l10.92 0 l0 7.12 z M46.64 29.68 c0 1.12 -0.2 4.68 -2.68 7.44 c-1.44 1.6 -4.52 3.68 -9.68 3.68 c-1.2 0 -4.92 -0.04 -7.96 -2.44 c-1.52 -1.2 -3.84 -3.84 -3.84 -8.56 c0 -2.88 0.88 -5.72 2.84 -7.84 c1.4 -1.52 4.36 -3.6 9.4 -3.56 c1.08 0 5.36 0.12 8.44 2.8 c2.32 2.04 3.48 5.4 3.48 8.48 z M38.32 29.48 c0 -3.12 -1 -4.56 -2.48 -5.08 c-0.6 -0.2 -1.12 -0.2 -1.36 -0.2 c-1.44 0.04 -2.24 0.76 -2.6 1.16 c-0.64 0.68 -1.2 2.08 -1.2 4.2 c0 2.04 0.52 3.44 1.04 4.16 c0.32 0.44 0.76 0.8 1.24 1 c0.24 0.12 0.84 0.28 1.56 0.28 c0.96 0 1.84 -0.28 2.48 -0.92 c0.72 -0.72 1.32 -2.28 1.32 -4.6 z M70.8 38.84 c-0.04 0.4 -0.04 0.76 -0.08 1.16 c-0.04 0.92 -0.2 3.52 -2.4 5.36 c-2.36 2 -6.4 2.44 -9.32 2.44 c-1.12 0 -2.24 -0.04 -3.36 -0.16 c-2.28 -0.28 -4.92 -0.84 -6.32 -2.96 c-0.88 -1.36 -0.96 -2.76 -1 -4.4 l7.48 0 c0 0.24 -0.08 1.32 0.64 1.96 c0.4 0.36 1.32 0.72 2.6 0.72 c0.2 0 1.88 -0.04 2.84 -0.76 c1.12 -0.84 1 -2.48 1 -2.76 c0 -0.88 0.04 -1.72 0.04 -2.56 c-0.36 0.56 -0.4 0.64 -0.72 0.88 c-1.24 1 -3.12 1.24 -4.64 1.24 c-2.2 0 -4.08 -0.4 -5.84 -1.76 c-1.52 -1.16 -3.48 -3.6 -3.48 -8.2 c0 -1 0.08 -4.96 2.64 -7.68 c1.8 -1.92 4.56 -2.64 7.12 -2.64 c0.6 0 2.92 0 4.64 1.36 c0.36 0.28 0.56 0.48 1.08 1.16 l-0.04 -1.96 l7.12 0 l0 19.56 z M62.72 28.92 c0 -1.48 -0.16 -3.4 -1.72 -4.16 c-0.24 -0.12 -0.76 -0.36 -1.48 -0.32 c-0.52 0 -1.04 0.12 -1.48 0.32 c-1.16 0.56 -1.96 1.88 -1.96 4.48 c0 1.76 0.4 2.84 0.92 3.4 c0.28 0.32 0.6 0.52 1 0.68 c0.16 0.08 0.72 0.24 1.32 0.24 c0.32 0 0.88 0 1.56 -0.32 c1.64 -0.72 1.84 -2.76 1.84 -4.32 z M82.44 17.24 l-8.24 0 l0 -5.48 l8.24 0 l0 5.48 z M82.44 40 l-8.24 0 l0 -20.72 l8.24 0 l0 20.72 z M108.07999999999998 40 l-8.24 0 l0 -11.32 c0 -0.48 0 -0.92 -0.12 -1.4 c-0.2 -0.72 -0.8 -1.72 -2.68 -1.72 c-3.04 0 -3 2.52 -3 3.4 l0 11.04 l-8.2 0 l0 -20.72 l7.76 0 l0 2.76 c0.52 -0.76 0.6 -0.84 1 -1.24 c1.52 -1.52 3.72 -2.08 5.84 -2.08 c0.76 0 3.32 0.04 5.28 1.72 c1.08 0.88 1.76 2.24 2.08 3.6 c0.16 0.68 0.28 1.4 0.28 2.88 l0 13.08 z" style="block-size:auto;d:path(&quot;M 21.6 40 L 1.76 40 L 1.76 11.76 L 10.68 11.76 L 10.68 32.88 L 21.6 32.88 L 21.6 40 Z M 46.64 29.68 C 46.64 30.8 46.44 34.36 43.96 37.12 C 42.52 38.72 39.44 40.8 34.28 40.8 C 33.08 40.8 29.36 40.76 26.32 38.36 C 24.8 37.16 22.48 34.52 22.48 29.8 C 22.48 26.92 23.36 24.08 25.32 21.96 C 26.72 20.44 29.68 18.36 34.72 18.4 C 35.8 18.4 40.08 18.52 43.16 21.2 C 45.48 23.24 46.64 26.6 46.64 29.68 Z M 38.32 29.48 C 38.32 26.36 37.32 24.92 35.84 24.4 C 35.24 24.2 34.72 24.2 34.48 24.2 C 33.04 24.24 32.24 24.96 31.88 25.36 C 31.24 26.04 30.68 27.44 30.68 29.56 C 30.68 31.6 31.2 33 31.72 33.72 C 32.04 34.16 32.48 34.52 32.96 34.72 C 33.2 34.84 33.8 35 34.52 35 C 35.48 35 36.36 34.72 37 34.08 C 37.72 33.36 38.32 31.8 38.32 29.48 Z M 70.8 38.84 C 70.76 39.24 70.76 39.6 70.72 40 C 70.68 40.92 70.52 43.52 68.32 45.36 C 65.96 47.36 61.92 47.8 59 47.8 C 57.88 47.8 56.76 47.76 55.64 47.64 C 53.36 47.36 50.72 46.8 49.32 44.68 C 48.44 43.32 48.36 41.92 48.32 40.28 L 55.8 40.28 C 55.8 40.52 55.72 41.6 56.44 42.24 C 56.84 42.6 57.76 42.96 59.04 42.96 C 59.24 42.96 60.92 42.92 61.88 42.2 C 63 41.36 62.88 39.72 62.88 39.44 C 62.88 38.56 62.92 37.72 62.92 36.88 C 62.56 37.44 62.52 37.52 62.2 37.76 C 60.96 38.76 59.08 39 57.56 39 C 55.36 39 53.48 38.6 51.72 37.24 C 50.2 36.08 48.24 33.64 48.24 29.04 C 48.24 28.04 48.32 24.08 50.88 21.36 C 52.68 19.44 55.44 18.72 58 18.72 C 58.6 18.72 60.92 18.72 62.64 20.08 C 63 20.36 63.2 20.56 63.72 21.24 L 63.68 19.28 L 70.8 19.28 L 70.8 38.84 Z M 62.72 28.92 C 62.72 27.44 62.56 25.52 61 24.76 C 60.76 24.64 60.24 24.4 59.52 24.44 C 59 24.44 58.48 24.56 58.04 24.76 C 56.88 25.32 56.08 26.64 56.08 29.24 C 56.08 31 56.48 32.08 57 32.64 C 57.28 32.96 57.6 33.16 58 33.32 C 58.16 33.4 58.72 33.56 59.32 33.56 C 59.64 33.56 60.2 33.56 60.88 33.24 C 62.52 32.52 62.72 30.48 62.72 28.92 Z M 82.44 17.24 L 74.2 17.24 L 74.2 11.76 L 82.44 11.76 L 82.44 17.24 Z M 82.44 40 L 74.2 40 L 74.2 19.28 L 82.44 19.28 L 82.44 40 Z M 108.08 40 L 99.84 40 L 99.84 28.68 C 99.84 28.2 99.84 27.76 99.72 27.28 C 99.52 26.56 98.92 25.56 97.04 25.56 C 94 25.56 94.04 28.08 94.04 28.96 L 94.04 40 L 85.84 40 L 85.84 19.28 L 93.6 19.28 L 93.6 22.04 C 94.12 21.28 94.2 21.2 94.6 20.8 C 96.12 19.28 98.32 18.72 100.44 18.72 C 101.2 18.72 103.76 18.76 105.72 20.44 C 106.8 21.32 107.48 22.68 107.8 24.04 C 107.96 24.72 108.08 25.44 108.08 26.92 L 108.08 40 Z&quot;);fill:url(&quot;#SvgjsLinearGradient1028&quot;);height:auto;inline-size:auto;overflow-clip-margin:0px;overflow-x:visible;overflow-y:visible;perspective-origin:0px 0px;transform-origin:0px 0px;width:auto;"/></g></svg>