<?xml version="1.0" standalone="no"?><!DOCTYPE svg PUBLIC "-//W3C//DTD SVG 1.1//EN" "http://www.w3.org/Graphics/SVG/1.1/DTD/svg11.dtd"><svg width="425.6066178224897" height="287.49375" viewBox="0 0 350 236.42210502931454" version="1.1" xmlns="http://www.w3.org/2000/svg" xmlns:xlink="http://www.w3.org/1999/xlink" style="block-size:287.484px;height:287.484px;inline-size:425.594px;perspective-origin:212.797px 143.734px;transform-origin:212.797px 143.742px;width:425.594px;">
          <defs id="SvgjsDefs1110" style="block-size:auto;height:auto;inline-size:auto;overflow-clip-margin:0px;overflow-x:visible;overflow-y:visible;perspective-origin:0px 0px;transform-origin:0px 0px;width:auto;">
            <linearGradient id="SvgjsLinearGradient1115" style="block-size:auto;height:auto;inline-size:auto;overflow-clip-margin:0px;overflow-x:visible;overflow-y:visible;perspective-origin:0px 0px;transform-origin:0px 0px;width:auto;">
              <stop id="SvgjsStop1116" stop-color="#8f5e25" offset="0" style="block-size:auto;height:auto;inline-size:auto;overflow-clip-margin:0px;overflow-x:visible;overflow-y:visible;perspective-origin:50% 50%;stop-color:rgb(143, 94, 37);transform-origin:0px 0px;width:auto;"/>
              <stop id="SvgjsStop1117" stop-color="#fbf4a1" offset="0.5" style="block-size:auto;height:auto;inline-size:auto;overflow-clip-margin:0px;overflow-x:visible;overflow-y:visible;perspective-origin:50% 50%;stop-color:rgb(251, 244, 161);transform-origin:0px 0px;width:auto;"/>
              <stop id="SvgjsStop1118" stop-color="#8f5e25" offset="1" style="block-size:auto;height:auto;inline-size:auto;overflow-clip-margin:0px;overflow-x:visible;overflow-y:visible;perspective-origin:50% 50%;stop-color:rgb(143, 94, 37);transform-origin:0px 0px;width:auto;"/>
            </linearGradient>
            <linearGradient id="SvgjsLinearGradient1119" style="block-size:auto;height:auto;inline-size:auto;overflow-clip-margin:0px;overflow-x:visible;overflow-y:visible;perspective-origin:0px 0px;transform-origin:0px 0px;width:auto;">
              <stop id="SvgjsStop1120" stop-color="#8f5e25" offset="0" style="block-size:auto;height:auto;inline-size:auto;overflow-clip-margin:0px;overflow-x:visible;overflow-y:visible;perspective-origin:50% 50%;stop-color:rgb(143, 94, 37);transform-origin:0px 0px;width:auto;"/>
              <stop id="SvgjsStop1121" stop-color="#fbf4a1" offset="0.5" style="block-size:auto;height:auto;inline-size:auto;overflow-clip-margin:0px;overflow-x:visible;overflow-y:visible;perspective-origin:50% 50%;stop-color:rgb(251, 244, 161);transform-origin:0px 0px;width:auto;"/>
              <stop id="SvgjsStop1122" stop-color="#8f5e25" offset="1" style="block-size:auto;height:auto;inline-size:auto;overflow-clip-margin:0px;overflow-x:visible;overflow-y:visible;perspective-origin:50% 50%;stop-color:rgb(143, 94, 37);transform-origin:0px 0px;width:auto;"/>
            </linearGradient>
          </defs>
          <g id="SvgjsG1111" featurekey="ECw45b-0" transform="matrix(2.2126343159637676,0,0,2.2126343159637676,64.68580428243557,-15.974114944103192)" fill="url(#SvgjsLinearGradient1115)" style="block-size:auto;fill:url(&quot;#SvgjsLinearGradient1115&quot;);height:auto;inline-size:auto;overflow-clip-margin:0px;overflow-x:visible;overflow-y:visible;perspective-origin:0px 0px;transform:matrix(2.21263, 0, 0, 2.21263, 64.6858, -15.9741);transform-origin:0px 0px;width:auto;">
            <g xmlns="http://www.w3.org/2000/svg" style="block-size:auto;fill:url(&quot;#SvgjsLinearGradient1115&quot;);height:auto;inline-size:auto;overflow-clip-margin:0px;overflow-x:visible;overflow-y:visible;perspective-origin:0px 0px;transform-origin:0px 0px;width:auto;">
              <path fill="url(#SvgjsLinearGradient1115)" d="M68.967,34.45L48.875,20.184c-0.397-0.282-0.929-0.282-1.326,0L27.457,34.45   c-0.302,0.215-0.482,0.562-0.482,0.934V69.31c0,0.37,0.179,0.717,0.479,0.932l20.092,14.359c0.199,0.142,0.432,0.213,0.666,0.213   s0.467-0.071,0.666-0.213l20.092-14.359c0.301-0.215,0.479-0.562,0.479-0.932V35.384C69.449,35.013,69.269,34.665,68.967,34.45z    M29.265,36.792l8.103,4.503v22.13l-8.103,4.48V36.792z M58.413,40.108l-9.527-6.604V23.001l17.698,12.566L58.413,40.108z    M48.211,69.128l-8.944-5.965V41.548l8.944-6.2l8.944,6.2v21.614L48.211,69.128z M47.537,33.504l-9.527,6.604l-8.171-4.541   l17.698-12.566V33.504z M38.014,64.61l9.523,6.352V81.78L29.838,69.131L38.014,64.61z M48.886,70.962l9.524-6.352l8.175,4.521   L48.886,81.78V70.962z M59.056,63.425v-22.13l8.103-4.503v31.113L59.056,63.425z M36.9,16.18c-0.22-0.23-0.35-0.53-0.35-0.85   c0-0.31,0.13-0.61,0.35-0.84c0.45-0.44,1.24-0.44,1.68,0c0.23,0.23,0.35,0.53,0.35,0.84c0,0.32-0.12,0.62-0.34,0.85   c-0.23,0.22-0.53,0.35-0.85,0.35C37.43,16.53,37.12,16.4,36.9,16.18z M57.063,14.842c0-0.497,0.403-0.9,0.9-0.9h1.304v-1.303   c0-0.497,0.403-0.9,0.9-0.9s0.9,0.403,0.9,0.9v1.303h1.301c0.497,0,0.9,0.403,0.9,0.9s-0.403,0.9-0.9,0.9h-1.301v1.302   c0,0.497-0.403,0.9-0.9,0.9s-0.9-0.403-0.9-0.9v-1.302h-1.304C57.466,15.742,57.063,15.339,57.063,14.842z M20.25,63.18   c0.22,0.22,0.35,0.53,0.35,0.84c0,0.31-0.13,0.62-0.35,0.84c-0.22,0.22-0.53,0.35-0.84,0.35s-0.62-0.13-0.84-0.35   c-0.22-0.22-0.35-0.53-0.35-0.84c0-0.32,0.13-0.62,0.35-0.84C19.01,62.73,19.81,62.73,20.25,63.18z M34.527,85.159   c0,0.497-0.403,0.9-0.9,0.9h-1.302v1.3c0,0.497-0.403,0.9-0.9,0.9s-0.9-0.403-0.9-0.9v-1.3h-1.303c-0.497,0-0.9-0.403-0.9-0.9   s0.403-0.9,0.9-0.9h1.303v-1.303c0-0.497,0.403-0.9,0.9-0.9s0.9,0.403,0.9,0.9v1.303h1.302   C34.124,84.259,34.527,84.662,34.527,85.159z M61.73,86.52c0.22,0.22,0.35,0.53,0.35,0.84s-0.13,0.62-0.35,0.84   c-0.22,0.22-0.53,0.35-0.84,0.35s-0.62-0.13-0.84-0.35c-0.23-0.22-0.35-0.53-0.35-0.84s0.12-0.62,0.34-0.84   C60.49,86.07,61.28,86.07,61.73,86.52z M81.493,66.203c0,0.497-0.403,0.9-0.9,0.9h-1.302v1.3c0,0.497-0.403,0.9-0.9,0.9   s-0.9-0.403-0.9-0.9v-1.3h-1.302c-0.497,0-0.9-0.403-0.9-0.9s0.403-0.9,0.9-0.9h1.302v-1.302c0-0.497,0.403-0.9,0.9-0.9   s0.9,0.403,0.9,0.9v1.302h1.302C81.09,65.303,81.493,65.706,81.493,66.203z" style="block-size:auto;d:path(&quot;M 68.967 34.45 L 48.875 20.184 C 48.478 19.902 47.946 19.902 47.549 20.184 L 27.457 34.45 C 27.155 34.665 26.975 35.012 26.975 35.384 V 69.31 C 26.975 69.68 27.154 70.027 27.454 70.242 L 47.546 84.601 C 47.745 84.743 47.978 84.814 48.212 84.814 S 48.679 84.743 48.878 84.601 L 68.97 70.242 C 69.271 70.027 69.449 69.68 69.449 69.31 V 35.384 C 69.449 35.013 69.269 34.665 68.967 34.45 Z M 29.265 36.792 L 37.368 41.295 V 63.425 L 29.265 67.905 V 36.792 Z M 58.413 40.108 L 48.886 33.504 V 23.001 L 66.584 35.567 L 58.413 40.108 Z M 48.211 69.128 L 39.267 63.163 V 41.548 L 48.211 35.348 L 57.155 41.548 V 63.162 L 48.211 69.128 Z M 47.537 33.504 L 38.01 40.108 L 29.839 35.567 L 47.537 23.001 V 33.504 Z M 38.014 64.61 L 47.537 70.962 V 81.78 L 29.838 69.131 L 38.014 64.61 Z M 48.886 70.962 L 58.41 64.61 L 66.585 69.131 L 48.886 81.78 V 70.962 Z M 59.056 63.425 V 41.295 L 67.159 36.792 V 67.905 L 59.056 63.425 Z M 36.9 16.18 C 36.68 15.95 36.55 15.65 36.55 15.33 C 36.55 15.02 36.68 14.72 36.9 14.49 C 37.35 14.05 38.14 14.05 38.58 14.49 C 38.81 14.72 38.93 15.02 38.93 15.33 C 38.93 15.65 38.81 15.95 38.59 16.18 C 38.36 16.4 38.06 16.53 37.74 16.53 C 37.43 16.53 37.12 16.4 36.9 16.18 Z M 57.063 14.842 C 57.063 14.345 57.466 13.942 57.963 13.942 H 59.267 V 12.639 C 59.267 12.142 59.67 11.739 60.167 11.739 S 61.067 12.142 61.067 12.639 V 13.942 H 62.368 C 62.865 13.942 63.268 14.345 63.268 14.842 S 62.865 15.742 62.368 15.742 H 61.067 V 17.044 C 61.067 17.541 60.664 17.944 60.167 17.944 S 59.267 17.541 59.267 17.044 V 15.742 H 57.963 C 57.466 15.742 57.063 15.339 57.063 14.842 Z M 20.25 63.18 C 20.47 63.4 20.6 63.71 20.6 64.02 C 20.6 64.33 20.47 64.64 20.25 64.86 C 20.03 65.08 19.72 65.21 19.41 65.21 S 18.79 65.08 18.57 64.86 C 18.35 64.64 18.22 64.33 18.22 64.02 C 18.22 63.7 18.35 63.4 18.57 63.18 C 19.01 62.73 19.81 62.73 20.25 63.18 Z M 34.527 85.159 C 34.527 85.656 34.124 86.059 33.627 86.059 H 32.325 V 87.359 C 32.325 87.856 31.922 88.259 31.425 88.259 S 30.525 87.856 30.525 87.359 V 86.059 H 29.222 C 28.725 86.059 28.322 85.656 28.322 85.159 S 28.725 84.259 29.222 84.259 H 30.525 V 82.956 C 30.525 82.459 30.928 82.056 31.425 82.056 S 32.325 82.459 32.325 82.956 V 84.259 H 33.627 C 34.124 84.259 34.527 84.662 34.527 85.159 Z M 61.73 86.52 C 61.95 86.74 62.08 87.05 62.08 87.36 S 61.95 87.98 61.73 88.2 C 61.51 88.42 61.2 88.55 60.89 88.55 S 60.27 88.42 60.05 88.2 C 59.82 87.98 59.7 87.67 59.7 87.36 S 59.82 86.74 60.04 86.52 C 60.49 86.07 61.28 86.07 61.73 86.52 Z M 81.493 66.203 C 81.493 66.7 81.09 67.103 80.593 67.103 H 79.291 V 68.403 C 79.291 68.9 78.888 69.303 78.391 69.303 S 77.491 68.9 77.491 68.403 V 67.103 H 76.189 C 75.692 67.103 75.289 66.7 75.289 66.203 S 75.692 65.303 76.189 65.303 H 77.491 V 64.001 C 77.491 63.504 77.894 63.101 78.391 63.101 S 79.291 63.504 79.291 64.001 V 65.303 H 80.593 C 81.09 65.303 81.493 65.706 81.493 66.203 Z&quot;);fill:url(&quot;#SvgjsLinearGradient1115&quot;);height:auto;inline-size:auto;overflow-clip-margin:0px;overflow-x:visible;overflow-y:visible;perspective-origin:0px 0px;transform-origin:0px 0px;width:auto;">
              </path>
            </g>
          </g>
          <g id="SvgjsG1112" featurekey="6sJQsk-0" transform="matrix(2.484454019848034,0,0,2.484454019848034,-3.4285468317134855,186.73301989363387)" fill="url(#SvgjsLinearGradient1119)" style="block-size:auto;fill:url(&quot;#SvgjsLinearGradient1119&quot;);height:auto;inline-size:auto;overflow-clip-margin:0px;overflow-x:visible;overflow-y:visible;perspective-origin:0px 0px;transform:matrix(2.48445, 0, 0, 2.48445, -3.42855, 186.733);transform-origin:0px 0px;width:auto;">
            <path d="M13.28 17.56 l-2.74 2.44 l-5.2 0 l-2.74 -2.44 l0 -3.78 l-1.22 -1.06 l1.22 -1.08 l0 -3.86 l2.74 -2.44 l5.16 0 l2.74 2.44 l0.04 3.06 l-2.14 0 l0 -1.94 l-1.52 -1.42 l-3.36 0 l-1.52 1.32 l0 7.74 l1.52 1.32 l3.36 0 l1.52 -1.42 l0 -1.56 l-2.84 0 l0 -2.14 l4.98 0 l0 4.82 z M30.292 20 l-2.24 0 l-1.38 -3.66 l-6 0 l-1.38 3.66 l-2.24 0 l2.32 -6.2 l-1.02 -1.08 l1.78 -0.92 l2.42 -6.46 l2.24 0 z M25.872 14.2 l-2.2 -6 l-2.2 6 l4.4 0 z M45.044000000000004 20 l-2.32 0 l-3.06 -6.2 l-2.62 0 l0 6.2 l-2.14 0 l0 -6.2 l-1.22 -1.08 l1.22 -1.06 l0 -6.32 l7.08 0 l2.38 2.76 l0 2.94 l-2.38 2.76 z M42.224000000000004 10.12 l0 -1.12 l-1.26 -1.5 l-3.92 0 l0 4.16 l3.92 0 z M61.79600000000001 12.719999999999999 l-1.22 1.06 l0 3.78 l-2.74 2.44 l-5.2 0 l-2.76 -2.44 l0 -3.78 l-1.22 -1.06 l1.22 -1.08 l0 -3.86 l2.76 -2.44 l5.2 0 l2.74 2.44 l0 3.86 z M58.43600000000001 16.56 l0 -7.76 l-1.52 -1.32 l-3.36 0 l-1.52 1.32 l0 7.76 l1.52 1.3 l3.36 0 z M77.64800000000001 17.56 l-2.74 2.44 l-5.2 0 l-2.74 -2.44 l0 -3.78 l-1.22 -1.06 l1.22 -1.08 l0 -3.86 l2.74 -2.44 l5.16 0 l2.74 2.44 l0.04 3.06 l-2.14 0 l0 -1.94 l-1.52 -1.42 l-3.36 0 l-1.52 1.32 l0 7.74 l1.52 1.32 l3.36 0 l1.52 -1.42 l0 -1.56 l-2.84 0 l0 -2.14 l4.98 0 l0 4.82 z M94.66000000000001 20 l-2.24 0 l-1.38 -3.66 l-6 0 l-1.38 3.66 l-2.24 0 l2.32 -6.2 l-1.02 -1.08 l1.78 -0.92 l2.42 -6.46 l2.24 0 z M90.24000000000001 14.2 l-2.2 -6 l-2.2 6 l4.4 0 z M113.73200000000001 12.719999999999999 l-1.22 1.06 l0 6.22 l-2.14 0 l0 -10.86 l-3.56 6.7 l-2.24 0 l-3.56 -6.7 l0 10.86 l-2.14 0 l0 -6.22 l-1.22 -1.06 l1.22 -1.08 l0 -6.3 l2.34 0 l4.48 8.26 l4.48 -8.26 l2.34 0 l0 6.3 z M127.324 19.98 l-8.86 0 l0 -6.2 l-1.22 -1.08 l1.22 -1.06 l0 -6.3 l8.86 0 l0 2.14 l-6.72 0 l0 4.16 l5.18 0 l0 2.14 l-5.18 0 l0 4.06 l6.72 0 l0 2.14 z M142.256 17.56 l-2.76 2.44 l-4.98 0 l-2.76 -2.44 l0 -2.66 l2.14 0 l0 1.64 l1.52 1.32 l3.16 0 l1.52 -1.32 l0 -1.64 l-1.52 -1.3 l-3.76 0 l-2.76 -2.46 l0 -3.36 l2.76 -2.44 l4.66 0 l2.76 2.44 l0 2.44 l-2.14 0 l0 -1.52 l-1.42 -1.22 l-3.04 0 l-1.42 1.22 l0 1.52 l1.42 1.24 l3.86 0 l2.76 2.44 l0 3.66 z" style="block-size:auto;d:path(&quot;M 13.28 17.56 L 10.54 20 L 5.34 20 L 2.6 17.56 L 2.6 13.78 L 1.38 12.72 L 2.6 11.64 L 2.6 7.78 L 5.34 5.34 L 10.5 5.34 L 13.24 7.78 L 13.28 10.84 L 11.14 10.84 L 11.14 8.9 L 9.62 7.48 L 6.26 7.48 L 4.74 8.8 L 4.74 16.54 L 6.26 17.86 L 9.62 17.86 L 11.14 16.44 L 11.14 14.88 L 8.3 14.88 L 8.3 12.74 L 13.28 12.74 L 13.28 17.56 Z M 30.292 20 L 28.052 20 L 26.672 16.34 L 20.672 16.34 L 19.292 20 L 17.052 20 L 19.372 13.8 L 18.352 12.72 L 20.132 11.8 L 22.552 5.34 L 24.792 5.34 Z M 25.872 14.2 L 23.672 8.2 L 21.472 14.2 L 25.872 14.2 Z M 45.044 20 L 42.724 20 L 39.664 13.8 L 37.044 13.8 L 37.044 20 L 34.904 20 L 34.904 13.8 L 33.684 12.72 L 34.904 11.66 L 34.904 5.34 L 41.984 5.34 L 44.364 8.1 L 44.364 11.04 L 41.984 13.8 Z M 42.224 10.12 L 42.224 9 L 40.964 7.5 L 37.044 7.5 L 37.044 11.66 L 40.964 11.66 Z M 61.796 12.72 L 60.576 13.78 L 60.576 17.56 L 57.836 20 L 52.636 20 L 49.876 17.56 L 49.876 13.78 L 48.656 12.72 L 49.876 11.64 L 49.876 7.78 L 52.636 5.34 L 57.836 5.34 L 60.576 7.78 L 60.576 11.64 Z M 58.436 16.56 L 58.436 8.8 L 56.916 7.48 L 53.556 7.48 L 52.036 8.8 L 52.036 16.56 L 53.556 17.86 L 56.916 17.86 Z M 77.648 17.56 L 74.908 20 L 69.708 20 L 66.968 17.56 L 66.968 13.78 L 65.748 12.72 L 66.968 11.64 L 66.968 7.78 L 69.708 5.34 L 74.868 5.34 L 77.608 7.78 L 77.648 10.84 L 75.508 10.84 L 75.508 8.9 L 73.988 7.48 L 70.628 7.48 L 69.108 8.8 L 69.108 16.54 L 70.628 17.86 L 73.988 17.86 L 75.508 16.44 L 75.508 14.88 L 72.668 14.88 L 72.668 12.74 L 77.648 12.74 L 77.648 17.56 Z M 94.66 20 L 92.42 20 L 91.04 16.34 L 85.04 16.34 L 83.66 20 L 81.42 20 L 83.74 13.8 L 82.72 12.72 L 84.5 11.8 L 86.92 5.34 L 89.16 5.34 Z M 90.24 14.2 L 88.04 8.2 L 85.84 14.2 L 90.24 14.2 Z M 113.732 12.72 L 112.512 13.78 L 112.512 20 L 110.372 20 L 110.372 9.14 L 106.812 15.84 L 104.572 15.84 L 101.012 9.14 L 101.012 20 L 98.872 20 L 98.872 13.78 L 97.652 12.72 L 98.872 11.64 L 98.872 5.34 L 101.212 5.34 L 105.692 13.6 L 110.172 5.34 L 112.512 5.34 L 112.512 11.64 Z M 127.324 19.98 L 118.464 19.98 L 118.464 13.78 L 117.244 12.7 L 118.464 11.64 L 118.464 5.34 L 127.324 5.34 L 127.324 7.48 L 120.604 7.48 L 120.604 11.64 L 125.784 11.64 L 125.784 13.78 L 120.604 13.78 L 120.604 17.84 L 127.324 17.84 L 127.324 19.98 Z M 142.256 17.56 L 139.496 20 L 134.516 20 L 131.756 17.56 L 131.756 14.9 L 133.896 14.9 L 133.896 16.54 L 135.416 17.86 L 138.576 17.86 L 140.096 16.54 L 140.096 14.9 L 138.576 13.6 L 134.816 13.6 L 132.056 11.14 L 132.056 7.78 L 134.816 5.34 L 139.476 5.34 L 142.236 7.78 L 142.236 10.22 L 140.096 10.22 L 140.096 8.7 L 138.676 7.48 L 135.636 7.48 L 134.216 8.7 L 134.216 10.22 L 135.636 11.46 L 139.496 11.46 L 142.256 13.9 L 142.256 17.56 Z&quot;);fill:url(&quot;#SvgjsLinearGradient1119&quot;);height:auto;inline-size:auto;overflow-clip-margin:0px;overflow-x:visible;overflow-y:visible;perspective-origin:0px 0px;transform-origin:0px 0px;width:auto;">
            </path>
          </g>
        </svg>