<?xml version="1.0" standalone="no"?><!DOCTYPE svg PUBLIC "-//W3C//DTD SVG 1.1//EN" "http://www.w3.org/Graphics/SVG/1.1/DTD/svg11.dtd"><svg width="435.59999999999997" height="136.31863442389758" viewBox="0 0 370 115.78947368421053" class="css-1j8o68f" version="1.1" xmlns="http://www.w3.org/2000/svg" xmlns:xlink="http://www.w3.org/1999/xlink" style="block-size:136.312px;height:136.312px;inline-size:435.594px;perspective-origin:217.797px 68.1562px;transform-origin:217.797px 68.1562px;width:435.594px;"><defs id="SvgjsDefs2008" style="block-size:auto;height:auto;inline-size:auto;overflow-clip-margin:0px;overflow-x:visible;overflow-y:visible;perspective-origin:0px 0px;transform-origin:0px 0px;width:auto;"><linearGradient id="SvgjsLinearGradient2013" style="block-size:auto;height:auto;inline-size:auto;overflow-clip-margin:0px;overflow-x:visible;overflow-y:visible;perspective-origin:0px 0px;transform-origin:0px 0px;width:auto;"><stop id="SvgjsStop2014" stop-color="#8f5e25" offset="0" style="block-size:auto;height:auto;inline-size:auto;overflow-clip-margin:0px;overflow-x:visible;overflow-y:visible;perspective-origin:50% 50%;stop-color:rgb(143, 94, 37);transform-origin:0px 0px;width:auto;"/><stop id="SvgjsStop2015" stop-color="#fbf4a1" offset="0.5" style="block-size:auto;height:auto;inline-size:auto;overflow-clip-margin:0px;overflow-x:visible;overflow-y:visible;perspective-origin:50% 50%;stop-color:rgb(251, 244, 161);transform-origin:0px 0px;width:auto;"/><stop id="SvgjsStop2016" stop-color="#8f5e25" offset="1" style="block-size:auto;height:auto;inline-size:auto;overflow-clip-margin:0px;overflow-x:visible;overflow-y:visible;perspective-origin:50% 50%;stop-color:rgb(143, 94, 37);transform-origin:0px 0px;width:auto;"/></linearGradient><linearGradient id="SvgjsLinearGradient2017" style="block-size:auto;height:auto;inline-size:auto;overflow-clip-margin:0px;overflow-x:visible;overflow-y:visible;perspective-origin:0px 0px;transform-origin:0px 0px;width:auto;"><stop id="SvgjsStop2018" stop-color="#8f5e25" offset="0" style="block-size:auto;height:auto;inline-size:auto;overflow-clip-margin:0px;overflow-x:visible;overflow-y:visible;perspective-origin:50% 50%;stop-color:rgb(143, 94, 37);transform-origin:0px 0px;width:auto;"/><stop id="SvgjsStop2019" stop-color="#fbf4a1" offset="0.5" style="block-size:auto;height:auto;inline-size:auto;overflow-clip-margin:0px;overflow-x:visible;overflow-y:visible;perspective-origin:50% 50%;stop-color:rgb(251, 244, 161);transform-origin:0px 0px;width:auto;"/><stop id="SvgjsStop2020" stop-color="#8f5e25" offset="1" style="block-size:auto;height:auto;inline-size:auto;overflow-clip-margin:0px;overflow-x:visible;overflow-y:visible;perspective-origin:50% 50%;stop-color:rgb(143, 94, 37);transform-origin:0px 0px;width:auto;"/></linearGradient></defs><g id="SvgjsG2009" featurekey="symbolFeature-0" transform="matrix(5.2631578947368425,0,0,5.2631578947368425,-55.26315789473685,-47.36842105263158)" fill="url(#SvgjsLinearGradient2013)" style="block-size:auto;fill:url(&quot;#SvgjsLinearGradient2013&quot;);height:auto;inline-size:auto;overflow-clip-margin:0px;overflow-x:visible;overflow-y:visible;perspective-origin:0px 0px;transform:matrix(5.26316, 0, 0, 5.26316, -55.2632, -47.3684);transform-origin:0px 0px;width:auto;"><path xmlns="http://www.w3.org/2000/svg" fill-rule="evenodd" clip-rule="evenodd" d="M29.5,20l-8-5.5V18h-6v4h6v3.5L29.5,20z M12.5,11h17V9h-19v22h19  v-2h-17V11z" style="block-size:auto;clip-rule:evenodd;d:path(&quot;M 29.5 20 L 21.5 14.5 V 18 H 15.5 V 22 H 21.5 V 25.5 L 29.5 20 Z M 12.5 11 H 29.5 V 9 H 10.5 V 31 H 29.5 V 29 H 12.5 V 11 Z&quot;);fill:url(&quot;#SvgjsLinearGradient2013&quot;);fill-rule:evenodd;height:auto;inline-size:auto;overflow-clip-margin:0px;overflow-x:visible;overflow-y:visible;perspective-origin:0px 0px;transform-origin:0px 0px;width:auto;"/></g><g id="SvgjsG2010" featurekey="nameFeature-0" transform="matrix(1.822157069627998,0,0,1.822157069627998,116.79300314039607,3.5714324441160876)" fill="url(#SvgjsLinearGradient2017)" style="block-size:auto;fill:url(&quot;#SvgjsLinearGradient2017&quot;);height:auto;inline-size:auto;overflow-clip-margin:0px;overflow-x:visible;overflow-y:visible;perspective-origin:0px 0px;transform:matrix(1.82216, 0, 0, 1.82216, 116.793, 3.57143);transform-origin:0px 0px;width:auto;"><path d="M21.6 40 l-19.84 0 l0 -28.24 l8.92 0 l0 21.12 l10.92 0 l0 7.12 z M46.64 29.68 c0 1.12 -0.2 4.68 -2.68 7.44 c-1.44 1.6 -4.52 3.68 -9.68 3.68 c-1.2 0 -4.92 -0.04 -7.96 -2.44 c-1.52 -1.2 -3.84 -3.84 -3.84 -8.56 c0 -2.88 0.88 -5.72 2.84 -7.84 c1.4 -1.52 4.36 -3.6 9.4 -3.56 c1.08 0 5.36 0.12 8.44 2.8 c2.32 2.04 3.48 5.4 3.48 8.48 z M38.32 29.48 c0 -3.12 -1 -4.56 -2.48 -5.08 c-0.6 -0.2 -1.12 -0.2 -1.36 -0.2 c-1.44 0.04 -2.24 0.76 -2.6 1.16 c-0.64 0.68 -1.2 2.08 -1.2 4.2 c0 2.04 0.52 3.44 1.04 4.16 c0.32 0.44 0.76 0.8 1.24 1 c0.24 0.12 0.84 0.28 1.56 0.28 c0.96 0 1.84 -0.28 2.48 -0.92 c0.72 -0.72 1.32 -2.28 1.32 -4.6 z M70.8 38.84 c-0.04 0.4 -0.04 0.76 -0.08 1.16 c-0.04 0.92 -0.2 3.52 -2.4 5.36 c-2.36 2 -6.4 2.44 -9.32 2.44 c-1.12 0 -2.24 -0.04 -3.36 -0.16 c-2.28 -0.28 -4.92 -0.84 -6.32 -2.96 c-0.88 -1.36 -0.96 -2.76 -1 -4.4 l7.48 0 c0 0.24 -0.08 1.32 0.64 1.96 c0.4 0.36 1.32 0.72 2.6 0.72 c0.2 0 1.88 -0.04 2.84 -0.76 c1.12 -0.84 1 -2.48 1 -2.76 c0 -0.88 0.04 -1.72 0.04 -2.56 c-0.36 0.56 -0.4 0.64 -0.72 0.88 c-1.24 1 -3.12 1.24 -4.64 1.24 c-2.2 0 -4.08 -0.4 -5.84 -1.76 c-1.52 -1.16 -3.48 -3.6 -3.48 -8.2 c0 -1 0.08 -4.96 2.64 -7.68 c1.8 -1.92 4.56 -2.64 7.12 -2.64 c0.6 0 2.92 0 4.64 1.36 c0.36 0.28 0.56 0.48 1.08 1.16 l-0.04 -1.96 l7.12 0 l0 19.56 z M62.72 28.92 c0 -1.48 -0.16 -3.4 -1.72 -4.16 c-0.24 -0.12 -0.76 -0.36 -1.48 -0.32 c-0.52 0 -1.04 0.12 -1.48 0.32 c-1.16 0.56 -1.96 1.88 -1.96 4.48 c0 1.76 0.4 2.84 0.92 3.4 c0.28 0.32 0.6 0.52 1 0.68 c0.16 0.08 0.72 0.24 1.32 0.24 c0.32 0 0.88 0 1.56 -0.32 c1.64 -0.72 1.84 -2.76 1.84 -4.32 z M97.47999999999999 29.68 c0 1.12 -0.2 4.68 -2.68 7.44 c-1.44 1.6 -4.52 3.68 -9.68 3.68 c-1.2 0 -4.92 -0.04 -7.96 -2.44 c-1.52 -1.2 -3.84 -3.84 -3.84 -8.56 c0 -2.88 0.88 -5.72 2.84 -7.84 c1.4 -1.52 4.36 -3.6 9.4 -3.56 c1.08 0 5.36 0.12 8.44 2.8 c2.32 2.04 3.48 5.4 3.48 8.48 z M89.16 29.48 c0 -3.12 -1 -4.56 -2.48 -5.08 c-0.6 -0.2 -1.12 -0.2 -1.36 -0.2 c-1.44 0.04 -2.24 0.76 -2.6 1.16 c-0.64 0.68 -1.2 2.08 -1.2 4.2 c0 2.04 0.52 3.44 1.04 4.16 c0.32 0.44 0.76 0.8 1.24 1 c0.24 0.12 0.84 0.28 1.56 0.28 c0.96 0 1.84 -0.28 2.48 -0.92 c0.72 -0.72 1.32 -2.28 1.32 -4.6 z M122.44 40 l-7.84 0 l0 -3.04 c-0.28 0.56 -0.48 1.08 -1.4 1.84 c-0.96 0.8 -2.56 1.72 -5.44 1.72 c-0.76 0 -3.44 -0.04 -5.48 -1.76 c-0.56 -0.48 -1.52 -1.52 -2 -3.36 c-0.24 -0.84 -0.36 -1.72 -0.36 -3.52 l0 -12.6 l8.28 0 l0 11.28 c0 0.96 -0.08 3.36 3 3.36 c0.8 0 1.6 -0.2 2.12 -0.72 c0.96 -1 0.84 -2.76 0.84 -2.96 l0 -10.96 l8.28 0 l0 20.72 z M138.96 39.84 c-0.68 0.08 -2.96 0.44 -5.2 0.44 c-4.36 0 -6 -1.68 -6.6 -3.76 c-0.2 -0.76 -0.24 -1.52 -0.24 -2.24 l0.12 -10.04 l-2.84 0 l0 -4.48 l2.88 0 l0.08 -6.52 l8.28 0 l-0.04 6.52 l3.52 0 l0 4.48 l-3.6 0 l-0.12 7.96 c0 0.84 0.12 2.16 2.28 2.16 c0.48 0 0.68 0 1.48 -0.16 l0 5.64 z" style="block-size:auto;d:path(&quot;M 21.6 40 L 1.76 40 L 1.76 11.76 L 10.68 11.76 L 10.68 32.88 L 21.6 32.88 L 21.6 40 Z M 46.64 29.68 C 46.64 30.8 46.44 34.36 43.96 37.12 C 42.52 38.72 39.44 40.8 34.28 40.8 C 33.08 40.8 29.36 40.76 26.32 38.36 C 24.8 37.16 22.48 34.52 22.48 29.8 C 22.48 26.92 23.36 24.08 25.32 21.96 C 26.72 20.44 29.68 18.36 34.72 18.4 C 35.8 18.4 40.08 18.52 43.16 21.2 C 45.48 23.24 46.64 26.6 46.64 29.68 Z M 38.32 29.48 C 38.32 26.36 37.32 24.92 35.84 24.4 C 35.24 24.2 34.72 24.2 34.48 24.2 C 33.04 24.24 32.24 24.96 31.88 25.36 C 31.24 26.04 30.68 27.44 30.68 29.56 C 30.68 31.6 31.2 33 31.72 33.72 C 32.04 34.16 32.48 34.52 32.96 34.72 C 33.2 34.84 33.8 35 34.52 35 C 35.48 35 36.36 34.72 37 34.08 C 37.72 33.36 38.32 31.8 38.32 29.48 Z M 70.8 38.84 C 70.76 39.24 70.76 39.6 70.72 40 C 70.68 40.92 70.52 43.52 68.32 45.36 C 65.96 47.36 61.92 47.8 59 47.8 C 57.88 47.8 56.76 47.76 55.64 47.64 C 53.36 47.36 50.72 46.8 49.32 44.68 C 48.44 43.32 48.36 41.92 48.32 40.28 L 55.8 40.28 C 55.8 40.52 55.72 41.6 56.44 42.24 C 56.84 42.6 57.76 42.96 59.04 42.96 C 59.24 42.96 60.92 42.92 61.88 42.2 C 63 41.36 62.88 39.72 62.88 39.44 C 62.88 38.56 62.92 37.72 62.92 36.88 C 62.56 37.44 62.52 37.52 62.2 37.76 C 60.96 38.76 59.08 39 57.56 39 C 55.36 39 53.48 38.6 51.72 37.24 C 50.2 36.08 48.24 33.64 48.24 29.04 C 48.24 28.04 48.32 24.08 50.88 21.36 C 52.68 19.44 55.44 18.72 58 18.72 C 58.6 18.72 60.92 18.72 62.64 20.08 C 63 20.36 63.2 20.56 63.72 21.24 L 63.68 19.28 L 70.8 19.28 L 70.8 38.84 Z M 62.72 28.92 C 62.72 27.44 62.56 25.52 61 24.76 C 60.76 24.64 60.24 24.4 59.52 24.44 C 59 24.44 58.48 24.56 58.04 24.76 C 56.88 25.32 56.08 26.64 56.08 29.24 C 56.08 31 56.48 32.08 57 32.64 C 57.28 32.96 57.6 33.16 58 33.32 C 58.16 33.4 58.72 33.56 59.32 33.56 C 59.64 33.56 60.2 33.56 60.88 33.24 C 62.52 32.52 62.72 30.48 62.72 28.92 Z M 97.48 29.68 C 97.48 30.8 97.28 34.36 94.8 37.12 C 93.36 38.72 90.28 40.8 85.12 40.8 C 83.92 40.8 80.2 40.76 77.16 38.36 C 75.64 37.16 73.32 34.52 73.32 29.8 C 73.32 26.92 74.2 24.08 76.16 21.96 C 77.56 20.44 80.52 18.36 85.56 18.4 C 86.64 18.4 90.92 18.52 94 21.2 C 96.32 23.24 97.48 26.6 97.48 29.68 Z M 89.16 29.48 C 89.16 26.36 88.16 24.92 86.68 24.4 C 86.08 24.2 85.56 24.2 85.32 24.2 C 83.88 24.24 83.08 24.96 82.72 25.36 C 82.08 26.04 81.52 27.44 81.52 29.56 C 81.52 31.6 82.04 33 82.56 33.72 C 82.88 34.16 83.32 34.52 83.8 34.72 C 84.04 34.84 84.64 35 85.36 35 C 86.32 35 87.2 34.72 87.84 34.08 C 88.56 33.36 89.16 31.8 89.16 29.48 Z M 122.44 40 L 114.6 40 L 114.6 36.96 C 114.32 37.52 114.12 38.04 113.2 38.8 C 112.24 39.6 110.64 40.52 107.76 40.52 C 107 40.52 104.32 40.48 102.28 38.76 C 101.72 38.28 100.76 37.24 100.28 35.4 C 100.04 34.56 99.92 33.68 99.92 31.88 L 99.92 19.28 L 108.2 19.28 L 108.2 30.56 C 108.2 31.52 108.12 33.92 111.2 33.92 C 112 33.92 112.8 33.72 113.32 33.2 C 114.28 32.2 114.16 30.44 114.16 30.24 L 114.16 19.28 L 122.44 19.28 L 122.44 40 Z M 138.96 39.84 C 138.28 39.92 136 40.28 133.76 40.28 C 129.4 40.28 127.76 38.6 127.16 36.52 C 126.96 35.76 126.92 35 126.92 34.28 L 127.04 24.24 L 124.2 24.24 L 124.2 19.76 L 127.08 19.76 L 127.16 13.24 L 135.44 13.24 L 135.4 19.76 L 138.92 19.76 L 138.92 24.24 L 135.32 24.24 L 135.2 32.2 C 135.2 33.04 135.32 34.36 137.48 34.36 C 137.96 34.36 138.16 34.36 138.96 34.2 L 138.96 39.84 Z&quot;);fill:url(&quot;#SvgjsLinearGradient2017&quot;);height:auto;inline-size:auto;overflow-clip-margin:0px;overflow-x:visible;overflow-y:visible;perspective-origin:0px 0px;transform-origin:0px 0px;width:auto;"/></g></svg>