<?xml version="1.0" standalone="no"?><!DOCTYPE svg PUBLIC "-//W3C//DTD SVG 1.1//EN" "http://www.w3.org/Graphics/SVG/1.1/DTD/svg11.dtd"><svg width="435.59999999999997" height="112.90485799591542" viewBox="0 0 370 95.90173888541943" class="css-1j8o68f" version="1.1" xmlns="http://www.w3.org/2000/svg" xmlns:xlink="http://www.w3.org/1999/xlink" style="block-size:112.891px;height:112.891px;inline-size:435.594px;perspective-origin:217.797px 56.4375px;transform-origin:217.797px 56.4453px;width:435.594px;"><defs id="SvgjsDefs1488" style="block-size:auto;height:auto;inline-size:auto;overflow-clip-margin:0px;overflow-x:visible;overflow-y:visible;perspective-origin:0px 0px;transform-origin:0px 0px;width:auto;"><linearGradient id="SvgjsLinearGradient1493" style="block-size:auto;height:auto;inline-size:auto;overflow-clip-margin:0px;overflow-x:visible;overflow-y:visible;perspective-origin:0px 0px;transform-origin:0px 0px;width:auto;"><stop id="SvgjsStop1494" stop-color="#8f5e25" offset="0" style="block-size:auto;height:auto;inline-size:auto;overflow-clip-margin:0px;overflow-x:visible;overflow-y:visible;perspective-origin:50% 50%;stop-color:rgb(143, 94, 37);transform-origin:0px 0px;width:auto;"/><stop id="SvgjsStop1495" stop-color="#fbf4a1" offset="0.5" style="block-size:auto;height:auto;inline-size:auto;overflow-clip-margin:0px;overflow-x:visible;overflow-y:visible;perspective-origin:50% 50%;stop-color:rgb(251, 244, 161);transform-origin:0px 0px;width:auto;"/><stop id="SvgjsStop1496" stop-color="#8f5e25" offset="1" style="block-size:auto;height:auto;inline-size:auto;overflow-clip-margin:0px;overflow-x:visible;overflow-y:visible;perspective-origin:50% 50%;stop-color:rgb(143, 94, 37);transform-origin:0px 0px;width:auto;"/></linearGradient><linearGradient id="SvgjsLinearGradient1497" style="block-size:auto;height:auto;inline-size:auto;overflow-clip-margin:0px;overflow-x:visible;overflow-y:visible;perspective-origin:0px 0px;transform-origin:0px 0px;width:auto;"><stop id="SvgjsStop1498" stop-color="#8f5e25" offset="0" style="block-size:auto;height:auto;inline-size:auto;overflow-clip-margin:0px;overflow-x:visible;overflow-y:visible;perspective-origin:50% 50%;stop-color:rgb(143, 94, 37);transform-origin:0px 0px;width:auto;"/><stop id="SvgjsStop1499" stop-color="#fbf4a1" offset="0.5" style="block-size:auto;height:auto;inline-size:auto;overflow-clip-margin:0px;overflow-x:visible;overflow-y:visible;perspective-origin:50% 50%;stop-color:rgb(251, 244, 161);transform-origin:0px 0px;width:auto;"/><stop id="SvgjsStop1500" stop-color="#8f5e25" offset="1" style="block-size:auto;height:auto;inline-size:auto;overflow-clip-margin:0px;overflow-x:visible;overflow-y:visible;perspective-origin:50% 50%;stop-color:rgb(143, 94, 37);transform-origin:0px 0px;width:auto;"/></linearGradient></defs><g id="SvgjsG1489" featurekey="symbolFeature-0" transform="matrix(1.0798786586541393,0,0,1.0798786586541393,-3.64351118749413,-5.668283672470642)" fill="url(#SvgjsLinearGradient1493)" style="block-size:auto;fill:url(&quot;#SvgjsLinearGradient1493&quot;);height:auto;inline-size:auto;overflow-clip-margin:0px;overflow-x:visible;overflow-y:visible;perspective-origin:0px 0px;transform:matrix(1.07988, 0, 0, 1.07988, -3.64351, -5.66828);transform-origin:0px 0px;width:auto;"><metadata xmlns="http://www.w3.org/2000/svg" style="block-size:auto;fill:url(&quot;#SvgjsLinearGradient1493&quot;);height:auto;inline-size:auto;overflow-clip-margin:0px;overflow-x:visible;overflow-y:visible;perspective-origin:50% 50%;transform-origin:0px 0px;width:auto;"><sfw style="block-size:auto;fill:url(&quot;#SvgjsLinearGradient1493&quot;);height:auto;inline-size:auto;overflow-clip-margin:0px;overflow-x:visible;overflow-y:visible;perspective-origin:50% 50%;transform-origin:0px 0px;width:auto;"><slices style="block-size:auto;fill:url(&quot;#SvgjsLinearGradient1493&quot;);height:auto;inline-size:auto;overflow-clip-margin:0px;overflow-x:visible;overflow-y:visible;perspective-origin:50% 50%;transform-origin:0px 0px;width:auto;"><slicesourcebounds width="92.603" height="88.807" x="3.375" y="-94.057" bottomleftorigin="true" style="block-size:auto;fill:url(&quot;#SvgjsLinearGradient1493&quot;);height:auto;inline-size:auto;overflow-clip-margin:0px;overflow-x:visible;overflow-y:visible;perspective-origin:50% 50%;transform-origin:0px 0px;width:auto;"/></slices></sfw></metadata><path xmlns="http://www.w3.org/2000/svg" d="M27.521,94c0.162-12,9.944-21.717,22.004-21.717C61.584,72.283,71.366,82,71.529,94h24.445c0,0,0.003,0.092,0.003,0.042  c0-25.572-20.73-46.206-46.301-46.206c-25.572,0-46.302,20.586-46.302,46.156C3.375,94.043,3.378,94,3.378,94H27.521z" style="block-size:auto;d:path(&quot;M 27.521 94 C 27.683 82 37.465 72.283 49.525 72.283 C 61.584 72.283 71.366 82 71.529 94 H 95.974 C 95.974 94 95.977 94.092 95.977 94.042 C 95.977 68.47 75.247 47.836 49.676 47.836 C 24.104 47.836 3.374 68.422 3.374 93.992 C 3.375 94.043 3.378 94 3.378 94 H 27.521 Z&quot;);fill:url(&quot;#SvgjsLinearGradient1493&quot;);height:auto;inline-size:auto;overflow-clip-margin:0px;overflow-x:visible;overflow-y:visible;perspective-origin:0px 0px;transform-origin:0px 0px;width:auto;"/><circle xmlns="http://www.w3.org/2000/svg" cx="49.677" cy="24.856" r="19.607" style="block-size:auto;cx:49.677px;cy:24.856px;fill:url(&quot;#SvgjsLinearGradient1493&quot;);height:auto;inline-size:auto;overflow-clip-margin:0px;overflow-x:visible;overflow-y:visible;perspective-origin:0px 0px;r:19.607px;transform-origin:0px 0px;width:auto;"/></g><g id="SvgjsG1490" featurekey="nameFeature-0" transform="matrix(1.9089797433060747,0,0,1.9089797433060747,116.64019885594043,-1.533292815284888)" fill="url(#SvgjsLinearGradient1497)" style="block-size:auto;fill:url(&quot;#SvgjsLinearGradient1497&quot;);height:auto;inline-size:auto;overflow-clip-margin:0px;overflow-x:visible;overflow-y:visible;perspective-origin:0px 0px;transform:matrix(1.90898, 0, 0, 1.90898, 116.64, -1.53329);transform-origin:0px 0px;width:auto;"><path d="M28.32 20.96 c0 0.56 -0.04 2.36 -0.68 4.04 c-0.36 0.96 -1.8 3.92 -4.92 5.08 c-1.68 0.64 -3.36 0.72 -5.12 0.72 l-6.88 0 l0 9.2 l-8.96 0 l0 -28.24 l16.12 0 c2.76 0 5.32 0.2 7.52 2.12 c2.84 2.44 2.92 5.84 2.92 7.08 z M19.44 21.24 c0 -0.32 0 -1.16 -0.44 -1.96 c-0.88 -1.6 -2.76 -1.6 -3.24 -1.6 l-5.04 0 l0 7.2 l5.08 0 c0.12 0 1 -0.04 1.6 -0.24 c0.8 -0.28 2.04 -1.16 2.04 -3.4 z M44.760000000000005 25.8 c-0.4 -0.04 -0.8 -0.08 -1.2 -0.08 c-0.64 -0.04 -4.16 -0.24 -5.16 2.56 c-0.24 0.68 -0.24 1.24 -0.24 1.96 l0 9.76 l-8.2 0 l0 -20.72 l7.92 0 l0 1.8 c0.4 -0.36 0.68 -0.6 1.12 -0.88 c1.84 -1.28 3.6 -1.36 5.76 -1.36 l0 6.96 z M69.96000000000001 29.68 c0 1.12 -0.2 4.68 -2.68 7.44 c-1.44 1.6 -4.52 3.68 -9.68 3.68 c-1.2 0 -4.92 -0.04 -7.96 -2.44 c-1.52 -1.2 -3.84 -3.84 -3.84 -8.56 c0 -2.88 0.88 -5.72 2.84 -7.84 c1.4 -1.52 4.36 -3.6 9.4 -3.56 c1.08 0 5.36 0.12 8.44 2.8 c2.32 2.04 3.48 5.4 3.48 8.48 z M61.64 29.48 c0 -3.12 -1 -4.56 -2.48 -5.08 c-0.6 -0.2 -1.12 -0.2 -1.36 -0.2 c-1.44 0.04 -2.24 0.76 -2.6 1.16 c-0.64 0.68 -1.2 2.08 -1.2 4.2 c0 2.04 0.52 3.44 1.04 4.16 c0.32 0.44 0.76 0.8 1.24 1 c0.24 0.12 0.84 0.28 1.56 0.28 c0.96 0 1.84 -0.28 2.48 -0.92 c0.72 -0.72 1.32 -2.28 1.32 -4.6 z M85.84 24.240000000000002 l-3.72 0 l0 15.76 l-8.24 0 l0 -15.76 l-3.08 0 l0 -4.48 l3.08 0 l0 -2.04 c0 -0.2 0.04 -1.72 0.4 -2.76 c0.72 -2 2.84 -3.68 7.24 -3.68 c2.04 0 3.56 0.4 4.32 0.56 l0 5.64 c-0.76 -0.28 -1.04 -0.28 -1.52 -0.28 c-2.36 0 -2.2 1.76 -2.2 2.56 l3.72 0 l0 4.48 z M95.76 17.24 l-8.24 0 l0 -5.48 l8.24 0 l0 5.48 z M95.76 40 l-8.24 0 l0 -20.72 l8.24 0 l0 20.72 z M107.44000000000001 40 l-8.28 0 l0 -28.24 l8.28 0 l0 28.24 z M132.72000000000003 31.119999999999997 l-14.44 0 s0 0.96 0.2 1.6 c0.28 0.8 1.08 2.32 3.28 2.28 c1.28 0 1.96 -0.44 2.36 -0.8 c0.84 -0.68 1.24 -1.6 1.4 -1.88 l6.76 2.84 c-0.2 0.32 -0.44 0.76 -1 1.4 c-1.44 1.68 -3.08 2.6 -3.8 2.96 c-1 0.48 -3.16 1.32 -6.12 1.32 c-1.72 0 -3.36 -0.24 -4.92 -0.88 c-4.28 -1.76 -6.56 -5.92 -6.56 -10.44 c0 -4.28 1.96 -6.92 3.16 -8.08 c2.96 -2.84 7.08 -3.04 8.24 -3.04 c1.4 0 5.64 0.2 8.64 3.44 c1 1.08 1.76 2.44 2.2 3.84 c0.56 1.8 0.6 3.56 0.6 5.44 z M124.36000000000001 26.759999999999998 c-0.04 -0.24 -0.04 -0.64 -0.2 -1.16 c-0.56 -1.72 -2.08 -1.96 -2.72 -1.96 c-0.64 0.04 -1.04 0.2 -1.28 0.32 c-1.52 0.68 -1.72 2.36 -1.8 2.8 l6 0 z" style="block-size:auto;d:path(&quot;M 28.32 20.96 C 28.32 21.52 28.28 23.32 27.64 25 C 27.28 25.96 25.84 28.92 22.72 30.08 C 21.04 30.72 19.36 30.8 17.6 30.8 L 10.72 30.8 L 10.72 40 L 1.76 40 L 1.76 11.76 L 17.88 11.76 C 20.64 11.76 23.2 11.96 25.4 13.88 C 28.24 16.32 28.32 19.72 28.32 20.96 Z M 19.44 21.24 C 19.44 20.92 19.44 20.08 19 19.28 C 18.12 17.68 16.24 17.68 15.76 17.68 L 10.72 17.68 L 10.72 24.88 L 15.8 24.88 C 15.92 24.88 16.8 24.84 17.4 24.64 C 18.2 24.36 19.44 23.48 19.44 21.24 Z M 44.76 25.8 C 44.36 25.76 43.96 25.72 43.56 25.72 C 42.92 25.68 39.4 25.48 38.4 28.28 C 38.16 28.96 38.16 29.52 38.16 30.24 L 38.16 40 L 29.96 40 L 29.96 19.28 L 37.88 19.28 L 37.88 21.08 C 38.28 20.72 38.56 20.48 39 20.2 C 40.84 18.92 42.6 18.84 44.76 18.84 L 44.76 25.8 Z M 69.96 29.68 C 69.96 30.8 69.76 34.36 67.28 37.12 C 65.84 38.72 62.76 40.8 57.6 40.8 C 56.4 40.8 52.68 40.76 49.64 38.36 C 48.12 37.16 45.8 34.52 45.8 29.8 C 45.8 26.92 46.68 24.08 48.64 21.96 C 50.04 20.44 53 18.36 58.04 18.4 C 59.12 18.4 63.4 18.52 66.48 21.2 C 68.8 23.24 69.96 26.6 69.96 29.68 Z M 61.64 29.48 C 61.64 26.36 60.64 24.92 59.16 24.4 C 58.56 24.2 58.04 24.2 57.8 24.2 C 56.36 24.24 55.56 24.96 55.2 25.36 C 54.56 26.04 54 27.44 54 29.56 C 54 31.6 54.52 33 55.04 33.72 C 55.36 34.16 55.8 34.52 56.28 34.72 C 56.52 34.84 57.12 35 57.84 35 C 58.8 35 59.68 34.72 60.32 34.08 C 61.04 33.36 61.64 31.8 61.64 29.48 Z M 85.84 24.24 L 82.12 24.24 L 82.12 40 L 73.88 40 L 73.88 24.24 L 70.8 24.24 L 70.8 19.76 L 73.88 19.76 L 73.88 17.72 C 73.88 17.52 73.92 16 74.28 14.96 C 75 12.96 77.12 11.28 81.52 11.28 C 83.56 11.28 85.08 11.68 85.84 11.84 L 85.84 17.48 C 85.08 17.2 84.8 17.2 84.32 17.2 C 81.96 17.2 82.12 18.96 82.12 19.76 L 85.84 19.76 L 85.84 24.24 Z M 95.76 17.24 L 87.52 17.24 L 87.52 11.76 L 95.76 11.76 L 95.76 17.24 Z M 95.76 40 L 87.52 40 L 87.52 19.28 L 95.76 19.28 L 95.76 40 Z M 107.44 40 L 99.16 40 L 99.16 11.76 L 107.44 11.76 L 107.44 40 Z M 132.72 31.12 L 118.28 31.12 S 118.28 32.08 118.48 32.72 C 118.76 33.52 119.56 35.04 121.76 35 C 123.04 35 123.72 34.56 124.12 34.2 C 124.96 33.52 125.36 32.6 125.52 32.32 L 132.28 35.16 C 132.08 35.48 131.84 35.92 131.28 36.56 C 129.84 38.24 128.2 39.16 127.48 39.52 C 126.48 40 124.32 40.84 121.36 40.84 C 119.64 40.84 118 40.6 116.44 39.96 C 112.16 38.2 109.88 34.04 109.88 29.52 C 109.88 25.24 111.84 22.6 113.04 21.44 C 116 18.6 120.12 18.4 121.28 18.4 C 122.68 18.4 126.92 18.6 129.92 21.84 C 130.92 22.92 131.68 24.28 132.12 25.68 C 132.68 27.48 132.72 29.24 132.72 31.12 Z M 124.36 26.76 C 124.32 26.52 124.32 26.12 124.16 25.6 C 123.6 23.88 122.08 23.64 121.44 23.64 C 120.8 23.68 120.4 23.84 120.16 23.96 C 118.64 24.64 118.44 26.32 118.36 26.76 L 124.36 26.76 Z&quot;);fill:url(&quot;#SvgjsLinearGradient1497&quot;);height:auto;inline-size:auto;overflow-clip-margin:0px;overflow-x:visible;overflow-y:visible;perspective-origin:0px 0px;transform-origin:0px 0px;width:auto;"/></g></svg>