<?xml version="1.0" standalone="no"?><!DOCTYPE svg PUBLIC "-//W3C//DTD SVG 1.1//EN" "http://www.w3.org/Graphics/SVG/1.1/DTD/svg11.dtd"><svg width="435.59999999999997" height="178.52173350989634" viewBox="0 0 370 151.6369178114363" class="css-1j8o68f" version="1.1" xmlns="http://www.w3.org/2000/svg" xmlns:xlink="http://www.w3.org/1999/xlink" style="block-size:178.516px;height:178.516px;inline-size:435.594px;perspective-origin:217.797px 89.25px;transform-origin:217.797px 89.2578px;width:435.594px;"><defs id="SvgjsDefs1876" style="block-size:auto;height:auto;inline-size:auto;overflow-clip-margin:0px;overflow-x:visible;overflow-y:visible;perspective-origin:0px 0px;transform-origin:0px 0px;width:auto;"><linearGradient id="SvgjsLinearGradient1881" style="block-size:auto;height:auto;inline-size:auto;overflow-clip-margin:0px;overflow-x:visible;overflow-y:visible;perspective-origin:0px 0px;transform-origin:0px 0px;width:auto;"><stop id="SvgjsStop1882" stop-color="#8f5e25" offset="0" style="block-size:auto;height:auto;inline-size:auto;overflow-clip-margin:0px;overflow-x:visible;overflow-y:visible;perspective-origin:50% 50%;stop-color:rgb(143, 94, 37);transform-origin:0px 0px;width:auto;"/><stop id="SvgjsStop1883" stop-color="#fbf4a1" offset="0.5" style="block-size:auto;height:auto;inline-size:auto;overflow-clip-margin:0px;overflow-x:visible;overflow-y:visible;perspective-origin:50% 50%;stop-color:rgb(251, 244, 161);transform-origin:0px 0px;width:auto;"/><stop id="SvgjsStop1884" stop-color="#8f5e25" offset="1" style="block-size:auto;height:auto;inline-size:auto;overflow-clip-margin:0px;overflow-x:visible;overflow-y:visible;perspective-origin:50% 50%;stop-color:rgb(143, 94, 37);transform-origin:0px 0px;width:auto;"/></linearGradient><linearGradient id="SvgjsLinearGradient1885" style="block-size:auto;height:auto;inline-size:auto;overflow-clip-margin:0px;overflow-x:visible;overflow-y:visible;perspective-origin:0px 0px;transform-origin:0px 0px;width:auto;"><stop id="SvgjsStop1886" stop-color="#8f5e25" offset="0" style="block-size:auto;height:auto;inline-size:auto;overflow-clip-margin:0px;overflow-x:visible;overflow-y:visible;perspective-origin:50% 50%;stop-color:rgb(143, 94, 37);transform-origin:0px 0px;width:auto;"/><stop id="SvgjsStop1887" stop-color="#fbf4a1" offset="0.5" style="block-size:auto;height:auto;inline-size:auto;overflow-clip-margin:0px;overflow-x:visible;overflow-y:visible;perspective-origin:50% 50%;stop-color:rgb(251, 244, 161);transform-origin:0px 0px;width:auto;"/><stop id="SvgjsStop1888" stop-color="#8f5e25" offset="1" style="block-size:auto;height:auto;inline-size:auto;overflow-clip-margin:0px;overflow-x:visible;overflow-y:visible;perspective-origin:50% 50%;stop-color:rgb(143, 94, 37);transform-origin:0px 0px;width:auto;"/></linearGradient></defs><g id="SvgjsG1877" featurekey="symbolFeature-0" transform="matrix(1.5163690624245847,0,0,1.5163690624245847,-7.533319234605681,11.218097965178766)" fill="url(#SvgjsLinearGradient1881)" style="block-size:auto;fill:url(&quot;#SvgjsLinearGradient1881&quot;);height:auto;inline-size:auto;overflow-clip-margin:0px;overflow-x:visible;overflow-y:visible;perspective-origin:0px 0px;transform:matrix(1.51637, 0, 0, 1.51637, -7.53332, 11.2181);transform-origin:0px 0px;width:auto;"><path xmlns="http://www.w3.org/2000/svg" d="M70.915,59.625c0,18.25-14.875,32.977-32.97,32.977c-18.25,0-32.977-14.727-32.977-32.977  c0-9.205,3.683-17.485,9.816-23.466V15.762c0-12.73,10.433-23.16,23.161-23.16s23.006,10.43,23.006,23.16v20.397  C67.084,42.14,70.915,50.42,70.915,59.625z M24.754,55.941H14.327l-1.536,3.684l1.536,3.68h10.427V55.941z M31.195,47.813  l-7.515-7.514l-3.683,1.379l-1.53,3.837l7.515,7.514L31.195,47.813z M25.982,66.066l-7.515,7.668l1.53,3.681l3.683,1.379  l7.515-7.515L25.982,66.066z M27.209,28.49c6.744-2.455,14.11-2.455,21.316,0V15.759c0-5.827-4.756-10.735-10.581-10.735  c-5.984,0-10.735,4.908-10.735,10.735V28.49z M41.473,46.588v-10.43l-3.683-1.533l-3.683,1.533v10.43H41.473z M34.107,72.507v10.427  l3.683,1.536l3.683-1.536V72.507H34.107L34.107,72.507z M49.445,53.029l7.515-7.514l-1.376-3.684l-3.838-1.533l-7.515,7.514  L49.445,53.029z M44.231,71.279l7.515,7.515l3.838-1.379l1.376-3.681l-7.515-7.668L44.231,71.279z M50.673,63.305h10.427l1.536-3.68  l-1.536-3.684H50.673V63.305z" style="block-size:auto;d:path(&quot;M 70.915 59.625 C 70.915 77.875 56.04 92.602 37.945 92.602 C 19.695 92.602 4.968 77.875 4.968 59.625 C 4.968 50.42 8.651 42.14 14.784 36.159 V 15.762 C 14.784 3.032 25.217 -7.398 37.945 -7.398 S 60.951 3.032 60.951 15.762 V 36.159 C 67.084 42.14 70.915 50.42 70.915 59.625 Z M 24.754 55.941 H 14.327 L 12.791 59.625 L 14.327 63.305 H 24.754 V 55.941 Z M 31.195 47.813 L 23.68 40.299 L 19.997 41.678 L 18.467 45.515 L 25.982 53.029 L 31.195 47.813 Z M 25.982 66.066 L 18.467 73.734 L 19.997 77.415 L 23.68 78.794 L 31.195 71.279 L 25.982 66.066 Z M 27.209 28.49 C 33.953 26.035 41.319 26.035 48.525 28.49 V 15.759 C 48.525 9.932 43.769 5.024 37.944 5.024 C 31.96 5.024 27.209 9.932 27.209 15.759 V 28.49 Z M 41.473 46.588 V 36.158 L 37.79 34.625 L 34.107 36.158 V 46.588 H 41.473 Z M 34.107 72.507 V 82.934 L 37.79 84.47 L 41.473 82.934 V 72.507 H 34.107 L 34.107 72.507 Z M 49.445 53.029 L 56.96 45.515 L 55.584 41.831 L 51.746 40.298 L 44.231 47.812 L 49.445 53.029 Z M 44.231 71.279 L 51.746 78.794 L 55.584 77.415 L 56.96 73.734 L 49.445 66.066 L 44.231 71.279 Z M 50.673 63.305 H 61.1 L 62.636 59.625 L 61.1 55.941 H 50.673 V 63.305 Z&quot;);fill:url(&quot;#SvgjsLinearGradient1881&quot;);height:auto;inline-size:auto;overflow-clip-margin:0px;overflow-x:visible;overflow-y:visible;perspective-origin:0px 0px;transform-origin:0px 0px;width:auto;"/></g><g id="SvgjsG1878" featurekey="nameFeature-0" transform="matrix(1.564847324711837,0,0,1.564847324711837,119.5618416745853,30.037166687949636)" fill="url(#SvgjsLinearGradient1885)" style="block-size:auto;fill:url(&quot;#SvgjsLinearGradient1885&quot;);height:auto;inline-size:auto;overflow-clip-margin:0px;overflow-x:visible;overflow-y:visible;perspective-origin:0px 0px;transform:matrix(1.56485, 0, 0, 1.56485, 119.562, 30.0372);transform-origin:0px 0px;width:auto;"><path d="M28 30.84 c0 4.2 -2.48 6.48 -3.72 7.4 c-3.64 2.68 -8.4 2.6 -9.6 2.6 c-4.12 0 -8.04 -0.68 -11.4 -3.2 c-1.28 -0.96 -2.04 -1.8 -3 -3.04 l6.84 -4.36 c0.6 0.96 0.96 1.4 1.36 1.72 c1.6 1.4 4.56 2 6.52 2 c2.52 0 4.28 -0.76 4.28 -2.16 c0 -0.32 -0.16 -0.56 -0.2 -0.68 c-0.2 -0.4 -0.52 -0.76 -1.36 -1.04 c-1 -0.36 -2.8 -0.6 -5.32 -1.12 c-3.88 -0.76 -5.96 -1.72 -7.32 -2.92 c-0.88 -0.76 -2.48 -2.64 -2.44 -5.72 c0 -0.76 0.04 -2.48 1.04 -4.28 c2.88 -5.28 10.36 -5.2 11.44 -5.2 c1.44 0 6.52 0.08 10.56 3.04 c0.88 0.64 1.4 1.2 2.16 1.96 l-5.64 4.68 c-0.36 -0.48 -0.56 -0.72 -0.8 -0.92 c-1.64 -1.52 -4.48 -1.96 -6.6 -1.96 c-0.2 0 -1.28 0 -2.12 0.36 c-0.16 0.08 -1.12 0.52 -1.12 1.48 c0 0.52 0.32 1 0.72 1.28 c0.72 0.44 2.4 0.76 3.16 0.88 c1 0.16 3.64 0.52 6.44 1.44 c1.76 0.56 6.12 2.12 6.12 7.76 z M39.08 17.24 l-8.24 0 l0 -5.48 l8.24 0 l0 5.48 z M39.08 40 l-8.24 0 l0 -20.72 l8.24 0 l0 20.72 z M64.12 38.84 c-0.04 0.4 -0.04 0.76 -0.08 1.16 c-0.04 0.92 -0.2 3.52 -2.4 5.36 c-2.36 2 -6.4 2.44 -9.32 2.44 c-1.12 0 -2.24 -0.04 -3.36 -0.16 c-2.28 -0.28 -4.92 -0.84 -6.32 -2.96 c-0.88 -1.36 -0.96 -2.76 -1 -4.4 l7.48 0 c0 0.24 -0.08 1.32 0.64 1.96 c0.4 0.36 1.32 0.72 2.6 0.72 c0.2 0 1.88 -0.04 2.84 -0.76 c1.12 -0.84 1 -2.48 1 -2.76 c0 -0.88 0.04 -1.72 0.04 -2.56 c-0.36 0.56 -0.4 0.64 -0.72 0.88 c-1.24 1 -3.12 1.24 -4.64 1.24 c-2.2 0 -4.08 -0.4 -5.84 -1.76 c-1.52 -1.16 -3.48 -3.6 -3.48 -8.2 c0 -1 0.08 -4.96 2.64 -7.68 c1.8 -1.92 4.56 -2.64 7.12 -2.64 c0.6 0 2.92 0 4.64 1.36 c0.36 0.28 0.56 0.48 1.08 1.16 l-0.04 -1.96 l7.12 0 l0 19.56 z M56.040000000000006 28.92 c0 -1.48 -0.16 -3.4 -1.72 -4.16 c-0.24 -0.12 -0.76 -0.36 -1.48 -0.32 c-0.52 0 -1.04 0.12 -1.48 0.32 c-1.16 0.56 -1.96 1.88 -1.96 4.48 c0 1.76 0.4 2.84 0.92 3.4 c0.28 0.32 0.6 0.52 1 0.68 c0.16 0.08 0.72 0.24 1.32 0.24 c0.32 0 0.88 0 1.56 -0.32 c1.64 -0.72 1.84 -2.76 1.84 -4.32 z M89.72 40 l-8.24 0 l0 -11.32 c0 -0.48 0 -0.92 -0.12 -1.4 c-0.2 -0.72 -0.8 -1.72 -2.68 -1.72 c-3.04 0 -3 2.52 -3 3.4 l0 11.04 l-8.2 0 l0 -20.72 l7.76 0 l0 2.76 c0.52 -0.76 0.6 -0.84 1 -1.24 c1.52 -1.52 3.72 -2.08 5.84 -2.08 c0.76 0 3.32 0.04 5.28 1.72 c1.08 0.88 1.76 2.24 2.08 3.6 c0.16 0.68 0.28 1.4 0.28 2.88 l0 13.08 z M105.44000000000001 30.8 l-12.6 0 l0 -6.84 l12.6 0 l0 6.84 z M134.08 28.68 c0 1.8 -0.24 3.32 -0.88 5 c-1.96 5.12 -7.08 7.08 -12.12 7.08 c-1.04 0 -3.84 -0.08 -6.64 -1.32 c-1.2 -0.52 -4.08 -1.92 -5.4 -5.4 c-0.52 -1.4 -0.72 -2.56 -0.72 -5.52 l0 -16.76 l8.96 0 l0 17.64 c0 0.28 -0.04 1.28 0.28 2.16 c0.72 2.16 2.96 2.28 3.6 2.28 c0.6 0 2.84 -0.12 3.64 -2.24 c0.28 -0.72 0.28 -1.36 0.28 -2.2 l0 -17.64 l9 0 l0 16.92 z M160.04000000000002 29.759999999999998 c0 5.8 -2.68 10.76 -9.12 10.76 c-0.6 0 -2.76 0 -4.48 -1.16 c-0.28 -0.2 -0.44 -0.36 -0.88 -0.76 l0 8.92 l-8.08 0 l0 -28.24 l8.04 0 l0 1.6 c0.4 -0.48 0.56 -0.64 0.8 -0.8 c0.76 -0.6 2.32 -1.36 4.68 -1.36 c6.48 0 9.04 5.28 9.04 11.04 z M151.92000000000002 29.84 c0 -1.28 -0.08 -2.92 -0.88 -4 c-0.72 -0.96 -1.8 -1.12 -2.2 -1.12 c-0.32 0 -0.96 0.04 -1.6 0.4 c-1.68 0.92 -1.76 3 -1.76 4.64 c0 1.6 0.12 3.72 1.72 4.6 c0.64 0.36 1.16 0.36 1.44 0.36 c0.36 0 0.92 -0.04 1.6 -0.44 c1.48 -0.92 1.68 -2.92 1.68 -4.44 z" style="block-size:auto;d:path(&quot;M 28 30.84 C 28 35.04 25.52 37.32 24.28 38.24 C 20.64 40.92 15.88 40.84 14.68 40.84 C 10.56 40.84 6.64 40.16 3.28 37.64 C 2 36.68 1.24 35.84 0.280001 34.6 L 7.12 30.24 C 7.72 31.2 8.08 31.64 8.48 31.96 C 10.08 33.36 13.04 33.96 15 33.96 C 17.52 33.96 19.28 33.2 19.28 31.8 C 19.28 31.48 19.12 31.24 19.08 31.12 C 18.88 30.72 18.56 30.36 17.72 30.08 C 16.72 29.72 14.92 29.48 12.4 28.96 C 8.52 28.2 6.44 27.24 5.08 26.04 C 4.2 25.28 2.6 23.4 2.64 20.32 C 2.64 19.56 2.68 17.84 3.68 16.04 C 6.56 10.76 14.04 10.84 15.12 10.84 C 16.56 10.84 21.64 10.92 25.68 13.88 C 26.56 14.52 27.08 15.08 27.84 15.84 L 22.2 20.52 C 21.84 20.04 21.64 19.8 21.4 19.6 C 19.76 18.08 16.92 17.64 14.8 17.64 C 14.6 17.64 13.52 17.64 12.68 18 C 12.52 18.08 11.56 18.52 11.56 19.48 C 11.56 20 11.88 20.48 12.28 20.76 C 13 21.2 14.68 21.52 15.44 21.64 C 16.44 21.8 19.08 22.16 21.88 23.08 C 23.64 23.64 28 25.2 28 30.84 Z M 39.08 17.24 L 30.84 17.24 L 30.84 11.76 L 39.08 11.76 L 39.08 17.24 Z M 39.08 40 L 30.84 40 L 30.84 19.28 L 39.08 19.28 L 39.08 40 Z M 64.12 38.84 C 64.08 39.24 64.08 39.6 64.04 40 C 64 40.92 63.84 43.52 61.64 45.36 C 59.28 47.36 55.24 47.8 52.32 47.8 C 51.2 47.8 50.08 47.76 48.96 47.64 C 46.68 47.36 44.04 46.8 42.64 44.68 C 41.76 43.32 41.68 41.92 41.64 40.28 L 49.12 40.28 C 49.12 40.52 49.04 41.6 49.76 42.24 C 50.16 42.6 51.08 42.96 52.36 42.96 C 52.56 42.96 54.24 42.92 55.2 42.2 C 56.32 41.36 56.2 39.72 56.2 39.44 C 56.2 38.56 56.24 37.72 56.24 36.88 C 55.88 37.44 55.84 37.52 55.52 37.76 C 54.28 38.76 52.4 39 50.88 39 C 48.68 39 46.8 38.6 45.04 37.24 C 43.52 36.08 41.56 33.64 41.56 29.04 C 41.56 28.04 41.64 24.08 44.2 21.36 C 46 19.44 48.76 18.72 51.32 18.72 C 51.92 18.72 54.24 18.72 55.96 20.08 C 56.32 20.36 56.52 20.56 57.04 21.24 L 57 19.28 L 64.12 19.28 L 64.12 38.84 Z M 56.04 28.92 C 56.04 27.44 55.88 25.52 54.32 24.76 C 54.08 24.64 53.56 24.4 52.84 24.44 C 52.32 24.44 51.8 24.56 51.36 24.76 C 50.2 25.32 49.4 26.64 49.4 29.24 C 49.4 31 49.8 32.08 50.32 32.64 C 50.6 32.96 50.92 33.16 51.32 33.32 C 51.48 33.4 52.04 33.56 52.64 33.56 C 52.96 33.56 53.52 33.56 54.2 33.24 C 55.84 32.52 56.04 30.48 56.04 28.92 Z M 89.72 40 L 81.48 40 L 81.48 28.68 C 81.48 28.2 81.48 27.76 81.36 27.28 C 81.16 26.56 80.56 25.56 78.68 25.56 C 75.64 25.56 75.68 28.08 75.68 28.96 L 75.68 40 L 67.48 40 L 67.48 19.28 L 75.24 19.28 L 75.24 22.04 C 75.76 21.28 75.84 21.2 76.24 20.8 C 77.76 19.28 79.96 18.72 82.08 18.72 C 82.84 18.72 85.4 18.76 87.36 20.44 C 88.44 21.32 89.12 22.68 89.44 24.04 C 89.6 24.72 89.72 25.44 89.72 26.92 L 89.72 40 Z M 105.44 30.8 L 92.84 30.8 L 92.84 23.96 L 105.44 23.96 L 105.44 30.8 Z M 134.08 28.68 C 134.08 30.48 133.84 32 133.2 33.68 C 131.24 38.8 126.12 40.76 121.08 40.76 C 120.04 40.76 117.24 40.68 114.44 39.44 C 113.24 38.92 110.36 37.52 109.04 34.04 C 108.52 32.64 108.32 31.48 108.32 28.52 L 108.32 11.76 L 117.28 11.76 L 117.28 29.4 C 117.28 29.68 117.24 30.68 117.56 31.56 C 118.28 33.72 120.52 33.84 121.16 33.84 C 121.76 33.84 124 33.72 124.8 31.6 C 125.08 30.88 125.08 30.24 125.08 29.4 L 125.08 11.76 L 134.08 11.76 L 134.08 28.68 Z M 160.04 29.76 C 160.04 35.56 157.36 40.52 150.92 40.52 C 150.32 40.52 148.16 40.52 146.44 39.36 C 146.16 39.16 146 39 145.56 38.6 L 145.56 47.52 L 137.48 47.52 L 137.48 19.28 L 145.52 19.28 L 145.52 20.88 C 145.92 20.4 146.08 20.24 146.32 20.08 C 147.08 19.48 148.64 18.72 151 18.72 C 157.48 18.72 160.04 24 160.04 29.76 Z M 151.92 29.84 C 151.92 28.56 151.84 26.92 151.04 25.84 C 150.32 24.88 149.24 24.72 148.84 24.72 C 148.52 24.72 147.88 24.76 147.24 25.12 C 145.56 26.04 145.48 28.12 145.48 29.76 C 145.48 31.36 145.6 33.48 147.2 34.36 C 147.84 34.72 148.36 34.72 148.64 34.72 C 149 34.72 149.56 34.68 150.24 34.28 C 151.72 33.36 151.92 31.36 151.92 29.84 Z&quot;);fill:url(&quot;#SvgjsLinearGradient1885&quot;);height:auto;inline-size:auto;overflow-clip-margin:0px;overflow-x:visible;overflow-y:visible;perspective-origin:0px 0px;transform-origin:0px 0px;width:auto;"/></g></svg>